<svg xmlns="http://www.w3.org/2000/svg" width="654.027587890625" height="468.2931823730469" viewBox="-352.6785583496094 -127.30941772460938 654.027587890625 468.2931823730469"><title>Neo4j Graph Visualization</title><desc>Created using Neo4j (http://www.neo4j.com/)</desc><g class="layer relationships"><g class="relationship" transform="translate(71.00846752216923 105.11513699819156) rotate(408.72724136400547)"><path class="outline" fill="#A5ABB6" stroke="none" d="M 25 0.5 L 34.91784511074509 0.5 L 34.91784511074509 -0.5 L 25 -0.5 Z M 80.48034511074509 0.5 L 90.39819022149018 0.5 L 90.39819022149018 3.5 L 97.39819022149018 0 L 90.39819022149018 -3.5 L 90.39819022149018 -0.5 L 80.48034511074509 -0.5 Z"/><text text-anchor="middle" pointer-events="none" font-size="8px" fill="#000000" x="57.69909511074509" y="3" font-family="sans-serif">ACTED_IN</text></g><g class="relationship" transform="translate(71.00846752216923 105.11513699819156) rotate(310.1530567069822)"><path class="outline" fill="#A5ABB6" stroke="none" d="M 25 0.5 L 33.320903649927374 0.5 L 33.320903649927374 -0.5 L 25 -0.5 Z M 78.88340364992737 0.5 L 87.20430729985475 0.5 L 87.20430729985475 3.5 L 94.20430729985475 0 L 87.20430729985475 -3.5 L 87.20430729985475 -0.5 L 78.88340364992737 -0.5 Z"/><text text-anchor="middle" pointer-events="none" font-size="8px" fill="#000000" x="56.102153649927374" y="3" font-family="sans-serif">ACTED_IN</text></g><g class="relationship" transform="translate(71.00846752216923 105.11513699819156) rotate(225.96736747937365)"><path class="outline" fill="#A5ABB6" stroke="none" d="M 25 0.5 L 90.32308002761043 0.5 L 90.32308002761043 -0.5 L 25 -0.5 Z M 135.88558002761044 0.5 L 201.20866005522086 0.5 L 201.20866005522086 3.5 L 208.20866005522086 0 L 201.20866005522086 -3.5 L 201.20866005522086 -0.5 L 135.88558002761044 -0.5 Z"/><text text-anchor="middle" pointer-events="none" font-size="8px" fill="#000000" x="113.10433002761043" y="3" transform="rotate(180 113.10433002761043 0)" font-family="sans-serif">ACTED_IN</text></g><g class="relationship" transform="translate(71.00846752216923 105.11513699819156) rotate(524.5341124548104)"><path class="outline" fill="#A5ABB6" stroke="none" d="M 25 0.5 L 74.62878519890519 0.5 L 74.62878519890519 -0.5 L 25 -0.5 Z M 120.19128519890519 0.5 L 169.82007039781038 0.5 L 169.82007039781038 3.5 L 176.82007039781038 0 L 169.82007039781038 -3.5 L 169.82007039781038 -0.5 L 120.19128519890519 -0.5 Z"/><text text-anchor="middle" pointer-events="none" font-size="8px" fill="#000000" x="97.41003519890519" y="3" transform="rotate(180 97.41003519890519 0)" font-family="sans-serif">ACTED_IN</text></g><g class="relationship" transform="translate(71.00846752216923 105.11513699819156) rotate(523.4193286079658)"><path class="outline" fill="#A5ABB6" stroke="none" d="M 25 0.5 L 155.06947517403128 0.5 L 155.06947517403128 -0.5 L 25 -0.5 Z M 200.63197517403128 0.5 L 330.70145034806256 0.5 L 330.70145034806256 3.5 L 337.70145034806256 0 L 330.70145034806256 -3.5 L 330.70145034806256 -0.5 L 200.63197517403128 -0.5 Z"/><text text-anchor="middle" pointer-events="none" font-size="8px" fill="#000000" x="177.85072517403128" y="3" transform="rotate(180 177.85072517403128 0)" font-family="sans-serif">ACTED_IN</text></g><g class="relationship" transform="translate(133.02019586715633 311.9837632916105) rotate(279.2590702571988)"><path class="outline" fill="#A5ABB6" stroke="none" d="M 25 0.5 L 31.915428883608158 0.5 L 31.915428883608158 -0.5 L 25 -0.5 Z M 77.47792888360816 0.5 L 84.39335776721632 0.5 L 84.39335776721632 3.5 L 91.39335776721632 0 L 84.39335776721632 -3.5 L 84.39335776721632 -0.5 L 77.47792888360816 -0.5 Z"/><text text-anchor="middle" pointer-events="none" font-size="8px" fill="#000000" x="54.69667888360816" y="3" font-family="sans-serif">ACTED_IN</text></g><g class="relationship" transform="translate(272.34901176296313 199.34985763034766) rotate(181.0654688321606)"><path class="outline" fill="#A5ABB6" stroke="none" d="M 25 0.5 L 34.029809269466575 0.5 L 34.029809269466575 -0.5 L 25 -0.5 Z M 79.59230926946657 0.5 L 88.62211853893315 0.5 L 88.62211853893315 3.5 L 95.62211853893315 0 L 88.62211853893315 -3.5 L 88.62211853893315 -0.5 L 79.59230926946657 -0.5 Z"/><text text-anchor="middle" pointer-events="none" font-size="8px" fill="#000000" x="56.811059269466575" y="3" transform="rotate(180 56.811059269466575 0)" font-family="sans-serif">ACTED_IN</text></g><g class="relationship" transform="translate(231.33593693534328 286.84852554626076) rotate(228.43148723945046)"><path class="outline" fill="#A5ABB6" stroke="none" d="M 25 0.5 L 33.693407360622054 0.5 L 33.693407360622054 -0.5 L 25 -0.5 Z M 79.25590736062205 0.5 L 87.94931472124411 0.5 L 87.94931472124411 3.5 L 94.94931472124411 0 L 87.94931472124411 -3.5 L 87.94931472124411 -0.5 L 79.25590736062205 -0.5 Z"/><text text-anchor="middle" pointer-events="none" font-size="8px" fill="#000000" x="56.474657360622054" y="3" transform="rotate(180 56.474657360622054 0)" font-family="sans-serif">ACTED_IN</text></g><g class="relationship" transform="translate(262.23676188649415 49.0076537617243) rotate(197.01807707203693)"><path class="outline" fill="#A5ABB6" stroke="none" d="M 25 0.5 L 33.51800213516577 0.5 L 33.51800213516577 -0.5 L 25 -0.5 Z M 79.08050213516577 0.5 L 87.59850427033155 0.5 L 87.59850427033155 3.5 L 94.59850427033155 0 L 87.59850427033155 -3.5 L 87.59850427033155 -0.5 L 79.08050213516577 -0.5 Z"/><text text-anchor="middle" pointer-events="none" font-size="8px" fill="#000000" x="56.29925213516577" y="3" transform="rotate(180 56.29925213516577 0)" font-family="sans-serif">ACTED_IN</text></g><g class="relationship" transform="translate(259.71204686360215 -37.94321522198749) rotate(515.0854084246513)"><path class="outline" fill="#A5ABB6" stroke="none" d="M 25 0.5 L 35.375124753443735 0.5 L 35.375124753443735 -0.5 L 25 -0.5 Z M 80.93762475344374 0.5 L 91.31274950688747 0.5 L 91.31274950688747 3.5 L 98.31274950688747 0 L 91.31274950688747 -3.5 L 91.31274950688747 -0.5 L 80.93762475344374 -0.5 Z"/><text text-anchor="middle" pointer-events="none" font-size="8px" fill="#000000" x="58.156374753443735" y="3" transform="rotate(180 58.156374753443735 0)" font-family="sans-serif">ACTED_IN</text></g><g class="relationship" transform="translate(192.65860212675022 -98.30941444502568) rotate(471.73889627726)"><path class="outline" fill="#A5ABB6" stroke="none" d="M 25 0.5 L 34.175215470854184 0.5 L 34.175215470854184 -0.5 L 25 -0.5 Z M 79.73771547085418 0.5 L 88.91293094170837 0.5 L 88.91293094170837 3.5 L 95.91293094170837 0 L 88.91293094170837 -3.5 L 88.91293094170837 -0.5 L 79.73771547085418 -0.5 Z"/><text text-anchor="middle" pointer-events="none" font-size="8px" fill="#000000" x="56.956465470854184" y="3" transform="rotate(180 56.956465470854184 0)" font-family="sans-serif">ACTED_IN</text></g><g class="relationship" transform="translate(97.0046318253519 -89.4180979808221) rotate(423.80874451941645)"><path class="outline" fill="#A5ABB6" stroke="none" d="M 25 0.5 L 31.34690273419688 0.5 L 31.34690273419688 -0.5 L 25 -0.5 Z M 76.90940273419687 0.5 L 83.25630546839376 0.5 L 83.25630546839376 3.5 L 90.25630546839376 0 L 83.25630546839376 -3.5 L 83.25630546839376 -0.5 L 76.90940273419687 -0.5 Z"/><text text-anchor="middle" pointer-events="none" font-size="8px" fill="#000000" x="54.12815273419688" y="3" font-family="sans-serif">ACTED_IN</text></g><g class="relationship" transform="translate(-323.6785544795611 -2.717839240238291) rotate(345.57417911646667)"><path class="outline" fill="#A5ABB6" stroke="none" d="M 25 0.5 L 93.80038309994313 0.5 L 93.80038309994313 -0.5 L 25 -0.5 Z M 139.36288309994313 0.5 L 208.16326619988627 0.5 L 208.16326619988627 3.5 L 215.16326619988627 0 L 208.16326619988627 -3.5 L 208.16326619988627 -0.5 L 139.36288309994313 -0.5 Z"/><text text-anchor="middle" pointer-events="none" font-size="8px" fill="#000000" x="116.58163309994313" y="3" font-family="sans-serif">ACTED_IN</text></g><g class="relationship" transform="translate(-323.6785544795611 -2.717839240238291) rotate(398.9225985725968)"><path class="outline" fill="#A5ABB6" stroke="none" d="M 25 0.5 L 102.36666858565985 0.5 L 102.36666858565985 -0.5 L 25 -0.5 Z M 147.92916858565985 0.5 L 225.2958371713197 0.5 L 225.2958371713197 3.5 L 232.2958371713197 0 L 225.2958371713197 -3.5 L 225.2958371713197 -0.5 L 147.92916858565985 -0.5 Z"/><text text-anchor="middle" pointer-events="none" font-size="8px" fill="#000000" x="125.14791858565985" y="3" font-family="sans-serif">ACTED_IN</text></g><g class="relationship" transform="translate(-323.6785544795611 -2.717839240238291) rotate(437.44440403361995)"><path class="outline" fill="#A5ABB6" stroke="none" d="M 25 0.5 L 81.97529729981754 0.5 L 81.97529729981754 -0.5 L 25 -0.5 Z M 127.53779729981754 0.5 L 184.51309459963508 0.5 L 184.51309459963508 3.5 L 191.51309459963508 0 L 184.51309459963508 -3.5 L 184.51309459963508 -0.5 L 127.53779729981754 -0.5 Z"/><text text-anchor="middle" pointer-events="none" font-size="8px" fill="#000000" x="104.75654729981754" y="3" font-family="sans-serif">ACTED_IN</text></g><g class="relationship" transform="translate(-27.846729065853104 250.38517153237302) rotate(258.57500045236196)"><path class="outline" fill="#A5ABB6" stroke="none" d="M 25 0.5 L 133.34885214791746 0.5 L 133.34885214791746 -0.5 L 25 -0.5 Z M 178.91135214791746 0.5 L 287.2602042958349 0.5 L 287.2602042958349 3.5 L 294.2602042958349 0 L 287.2602042958349 -3.5 L 287.2602042958349 -0.5 L 178.91135214791746 -0.5 Z"/><text text-anchor="middle" pointer-events="none" font-size="8px" fill="#000000" x="156.13010214791746" y="3" transform="rotate(180 156.13010214791746 0)" font-family="sans-serif">ACTED_IN</text></g><g class="relationship" transform="translate(-27.846729065853104 250.38517153237302) rotate(223.71255068699156)"><path class="outline" fill="#A5ABB6" stroke="none" d="M 25 0.5 L 39.88833782410161 0.5 L 39.88833782410161 -0.5 L 25 -0.5 Z M 85.45083782410161 0.5 L 100.33917564820322 0.5 L 100.33917564820322 3.5 L 107.33917564820322 0 L 100.33917564820322 -3.5 L 100.33917564820322 -0.5 L 85.45083782410161 -0.5 Z"/><text text-anchor="middle" pointer-events="none" font-size="8px" fill="#000000" x="62.66958782410161" y="3" transform="rotate(180 62.66958782410161 0)" font-family="sans-serif">ACTED_IN</text></g><g class="relationship" transform="translate(-27.846729065853104 250.38517153237302) rotate(189.5310890298279)"><path class="outline" fill="#A5ABB6" stroke="none" d="M 25 0.5 L 99.84213329578346 0.5 L 99.84213329578346 -0.5 L 25 -0.5 Z M 145.40463329578347 0.5 L 220.2467665915669 0.5 L 220.2467665915669 3.5 L 227.2467665915669 0 L 220.2467665915669 -3.5 L 220.2467665915669 -0.5 L 145.40463329578347 -0.5 Z"/><text text-anchor="middle" pointer-events="none" font-size="8px" fill="#000000" x="122.62338329578346" y="3" transform="rotate(180 122.62338329578346 0)" font-family="sans-serif">ACTED_IN</text></g><g class="relationship" transform="translate(-180.17904129895297 -1.570753524701356) rotate(325.61061193580167)"><path class="outline" fill="#A5ABB6" stroke="none" d="M 25 0.5 L 27.6994128464587 0.5 L 27.6994128464587 -0.5 L 25 -0.5 Z M 73.2619128464587 0.5 L 75.9613256929174 0.5 L 75.9613256929174 3.5 L 82.9613256929174 0 L 75.9613256929174 -3.5 L 75.9613256929174 -0.5 L 73.2619128464587 -0.5 Z"/><text text-anchor="middle" pointer-events="none" font-size="8px" fill="#000000" x="50.4806628464587" y="3" font-family="sans-serif">ACTED_IN</text></g><g class="relationship" transform="translate(-180.17904129895297 -1.570753524701356) rotate(430.5514142526849)"><path class="outline" fill="#A5ABB6" stroke="none" d="M 25 0.5 L 58.827054528912655 0.5 L 58.827054528912655 -0.5 L 25 -0.5 Z M 104.38955452891265 0.5 L 138.2166090578253 0.5 L 138.2166090578253 3.5 L 145.2166090578253 0 L 138.2166090578253 -3.5 L 138.2166090578253 -0.5 L 104.38955452891265 -0.5 Z"/><text text-anchor="middle" pointer-events="none" font-size="8px" fill="#000000" x="81.60830452891265" y="3" font-family="sans-serif">ACTED_IN</text></g><g class="relationship" transform="translate(-180.17904129895297 -1.570753524701356) rotate(474.64522093430634)"><path class="outline" fill="#A5ABB6" stroke="none" d="M 25 0.5 L 89.34562343193247 0.5 L 89.34562343193247 -0.5 L 25 -0.5 Z M 134.90812343193247 0.5 L 199.25374686386493 0.5 L 199.25374686386493 3.5 L 206.25374686386493 0 L 199.25374686386493 -3.5 L 199.25374686386493 -0.5 L 134.90812343193247 -0.5 Z"/><text text-anchor="middle" pointer-events="none" font-size="8px" fill="#000000" x="112.12687343193247" y="3" transform="rotate(180 112.12687343193247 0)" font-family="sans-serif">ACTED_IN</text></g><g class="relationship" transform="translate(-199.0410707289227 289.74560133842516) rotate(226.28426080451186)"><path class="outline" fill="#A5ABB6" stroke="none" d="M 25 0.5 L 29.841250254792158 0.5 L 29.841250254792158 -0.5 L 25 -0.5 Z M 75.40375025479216 0.5 L 80.24500050958432 0.5 L 80.24500050958432 3.5 L 87.24500050958432 0 L 80.24500050958432 -3.5 L 80.24500050958432 -0.5 L 75.40375025479216 -0.5 Z"/><text text-anchor="middle" pointer-events="none" font-size="8px" fill="#000000" x="52.62250025479216" y="3" transform="rotate(180 52.62250025479216 0)" font-family="sans-serif">ACTED_IN</text></g></g><g class="layer nodes"><g class="node" transform="translate(71.00846752216923,105.11513699819156)"><circle class="outline" cx="0" cy="0" r="25" fill="#F79767" stroke="#f36924" stroke-width="2px"/><text text-anchor="middle" pointer-events="none" font-family="sans-serif" dy="1.5625" font-size="25" fill="#FFFFFF"/><text text-anchor="middle" pointer-events="none" font-family="sans-serif" dy="1.5625" font-size="25" fill="#FFFFFF"/><text text-anchor="middle" pointer-events="none" x="0" y="0" font-size="10px" fill="#FFFFFF" font-family="sans-serif"> Hugo</text><text text-anchor="middle" pointer-events="none" x="0" y="10" font-size="10px" fill="#FFFFFF" font-family="sans-serif"> Weaving</text></g><g class="node" transform="translate(151.7477487273794,197.10690532537447)"><circle class="outline" cx="0" cy="0" r="25" fill="#57C7E3" stroke="#23b3d7" stroke-width="2px"/><text text-anchor="middle" pointer-events="none" font-family="sans-serif" dy="1.5625" font-size="25" fill="#2A2C34"/><text text-anchor="middle" pointer-events="none" font-family="sans-serif" dy="1.5625" font-size="25" fill="#2A2C34"/><text text-anchor="middle" pointer-events="none" x="0" y="0" font-size="10px" fill="#2A2C34" font-family="sans-serif"> Cloud</text><text text-anchor="middle" pointer-events="none" x="0" y="10" font-size="10px" fill="#2A2C34" font-family="sans-serif"> Atlas</text></g><g class="node" transform="translate(133.02019586715633,311.9837632916105)"><circle class="outline" cx="0" cy="0" r="25" fill="#F79767" stroke="#f36924" stroke-width="2px"/><text text-anchor="middle" pointer-events="none" font-family="sans-serif" dy="1.5625" font-size="25" fill="#FFFFFF"/><text text-anchor="middle" pointer-events="none" font-family="sans-serif" dy="1.5625" font-size="25" fill="#FFFFFF"/><text text-anchor="middle" pointer-events="none" x="0" y="0" font-size="10px" fill="#FFFFFF" font-family="sans-serif"> Tom</text><text text-anchor="middle" pointer-events="none" x="0" y="10" font-size="10px" fill="#FFFFFF" font-family="sans-serif"> Hanks</text></g><g class="node" transform="translate(272.34901176296313,199.34985763034766)"><circle class="outline" cx="0" cy="0" r="25" fill="#F79767" stroke="#f36924" stroke-width="2px"/><text text-anchor="middle" pointer-events="none" font-family="sans-serif" dy="1.5625" font-size="25" fill="#FFFFFF"/><text text-anchor="middle" pointer-events="none" font-family="sans-serif" dy="1.5625" font-size="25" fill="#FFFFFF"/><text text-anchor="middle" pointer-events="none" x="0" y="0" font-size="10px" fill="#FFFFFF" font-family="sans-serif"> Jim</text><text text-anchor="middle" pointer-events="none" x="0" y="10" font-size="10px" fill="#FFFFFF" font-family="sans-serif"> Broadb…</text></g><g class="node" transform="translate(231.33593693534328,286.84852554626076)"><circle class="outline" cx="0" cy="0" r="25" fill="#F79767" stroke="#f36924" stroke-width="2px"/><text text-anchor="middle" pointer-events="none" font-family="sans-serif" dy="1.5625" font-size="25" fill="#FFFFFF"/><text text-anchor="middle" pointer-events="none" font-family="sans-serif" dy="1.5625" font-size="25" fill="#FFFFFF"/><text text-anchor="middle" pointer-events="none" x="0" y="0" font-size="10px" fill="#FFFFFF" font-family="sans-serif"> Halle</text><text text-anchor="middle" pointer-events="none" x="0" y="10" font-size="10px" fill="#FFFFFF" font-family="sans-serif"> Berry</text></g><g class="node" transform="translate(147.8751814512582,14.004351859538474)"><circle class="outline" cx="0" cy="0" r="25" fill="#57C7E3" stroke="#23b3d7" stroke-width="2px"/><text text-anchor="middle" pointer-events="none" font-family="sans-serif" dy="1.5625" font-size="25" fill="#2A2C34"/><text text-anchor="middle" pointer-events="none" font-family="sans-serif" dy="1.5625" font-size="25" fill="#2A2C34"/><text text-anchor="middle" pointer-events="none" x="0" y="0" font-size="10px" fill="#2A2C34" font-family="sans-serif"> V for</text><text text-anchor="middle" pointer-events="none" x="0" y="10" font-size="10px" fill="#2A2C34" font-family="sans-serif"> Vendetta</text></g><g class="node" transform="translate(262.23676188649415,49.0076537617243)"><circle class="outline" cx="0" cy="0" r="25" fill="#F79767" stroke="#f36924" stroke-width="2px"/><text text-anchor="middle" pointer-events="none" font-family="sans-serif" dy="1.5625" font-size="25" fill="#FFFFFF"/><text text-anchor="middle" pointer-events="none" x="0" y="5" font-size="10px" fill="#FFFFFF" font-family="sans-serif"> John Hurt</text></g><g class="node" transform="translate(259.71204686360215,-37.94321522198749)"><circle class="outline" cx="0" cy="0" r="25" fill="#F79767" stroke="#f36924" stroke-width="2px"/><text text-anchor="middle" pointer-events="none" font-family="sans-serif" dy="1.5625" font-size="25" fill="#FFFFFF"/><text text-anchor="middle" pointer-events="none" font-family="sans-serif" dy="1.5625" font-size="25" fill="#FFFFFF"/><text text-anchor="middle" pointer-events="none" x="0" y="0" font-size="10px" fill="#FFFFFF" font-family="sans-serif"> Stephen</text><text text-anchor="middle" pointer-events="none" x="0" y="10" font-size="10px" fill="#FFFFFF" font-family="sans-serif"> Rea</text></g><g class="node" transform="translate(192.65860212675022,-98.30941444502568)"><circle class="outline" cx="0" cy="0" r="25" fill="#F79767" stroke="#f36924" stroke-width="2px"/><text text-anchor="middle" pointer-events="none" font-family="sans-serif" dy="1.5625" font-size="25" fill="#FFFFFF"/><text text-anchor="middle" pointer-events="none" font-family="sans-serif" dy="1.5625" font-size="25" fill="#FFFFFF"/><text text-anchor="middle" pointer-events="none" x="0" y="0" font-size="10px" fill="#FFFFFF" font-family="sans-serif"> Natalie</text><text text-anchor="middle" pointer-events="none" x="0" y="10" font-size="10px" fill="#FFFFFF" font-family="sans-serif"> Portman</text></g><g class="node" transform="translate(97.0046318253519,-89.4180979808221)"><circle class="outline" cx="0" cy="0" r="25" fill="#F79767" stroke="#f36924" stroke-width="2px"/><text text-anchor="middle" pointer-events="none" font-family="sans-serif" dy="1.5625" font-size="25" fill="#FFFFFF"/><text text-anchor="middle" pointer-events="none" x="0" y="5" font-size="10px" fill="#FFFFFF" font-family="sans-serif"> Ben Miles</text></g><g class="node" transform="translate(-91.08739870189233,-62.54884028322303)"><circle class="outline" cx="0" cy="0" r="25" fill="#57C7E3" stroke="#23b3d7" stroke-width="2px"/><text text-anchor="middle" pointer-events="none" font-family="sans-serif" dy="1.5625" font-size="25" fill="#2A2C34"/><text text-anchor="middle" pointer-events="none" font-family="sans-serif" dy="1.5625" font-size="25" fill="#2A2C34"/><text text-anchor="middle" pointer-events="none" font-family="sans-serif" dy="1.5625" font-size="25" fill="#2A2C34"/><text text-anchor="middle" pointer-events="none" x="0" y="-5" font-size="10px" fill="#2A2C34" font-family="sans-serif"> The</text><text text-anchor="middle" pointer-events="none" x="0" y="5" font-size="10px" fill="#2A2C34" font-family="sans-serif"> Matrix</text><text text-anchor="middle" pointer-events="none" x="0" y="15" font-size="10px" fill="#2A2C34" font-family="sans-serif"> Revol…</text></g><g class="node" transform="translate(-323.6785544795611,-2.717839240238291)"><circle class="outline" cx="0" cy="0" r="25" fill="#F79767" stroke="#f36924" stroke-width="2px"/><text text-anchor="middle" pointer-events="none" font-family="sans-serif" dy="1.5625" font-size="25" fill="#FFFFFF"/><text text-anchor="middle" pointer-events="none" font-family="sans-serif" dy="1.5625" font-size="25" fill="#FFFFFF"/><text text-anchor="middle" pointer-events="none" x="0" y="0" font-size="10px" fill="#FFFFFF" font-family="sans-serif"> Laurence</text><text text-anchor="middle" pointer-events="none" x="0" y="10" font-size="10px" fill="#FFFFFF" font-family="sans-serif"> Fishbur…</text></g><g class="node" transform="translate(-27.846729065853104,250.38517153237302)"><circle class="outline" cx="0" cy="0" r="25" fill="#F79767" stroke="#f36924" stroke-width="2px"/><text text-anchor="middle" pointer-events="none" font-family="sans-serif" dy="1.5625" font-size="25" fill="#FFFFFF"/><text text-anchor="middle" pointer-events="none" x="0" y="5" font-size="10px" fill="#FFFFFF" font-family="sans-serif"> Carrie-A…</text></g><g class="node" transform="translate(-180.17904129895297,-1.570753524701356)"><circle class="outline" cx="0" cy="0" r="25" fill="#F79767" stroke="#f36924" stroke-width="2px"/><text text-anchor="middle" pointer-events="none" font-family="sans-serif" dy="1.5625" font-size="25" fill="#FFFFFF"/><text text-anchor="middle" pointer-events="none" font-family="sans-serif" dy="1.5625" font-size="25" fill="#FFFFFF"/><text text-anchor="middle" pointer-events="none" x="0" y="0" font-size="10px" fill="#FFFFFF" font-family="sans-serif"> Keanu</text><text text-anchor="middle" pointer-events="none" x="0" y="10" font-size="10px" fill="#FFFFFF" font-family="sans-serif"> Reeves</text></g><g class="node" transform="translate(-123.50357488813259,158.93340687701692)"><circle class="outline" cx="0" cy="0" r="25" fill="#57C7E3" stroke="#23b3d7" stroke-width="2px"/><text text-anchor="middle" pointer-events="none" font-family="sans-serif" dy="1.5625" font-size="25" fill="#2A2C34"/><text text-anchor="middle" pointer-events="none" font-family="sans-serif" dy="1.5625" font-size="25" fill="#2A2C34"/><text text-anchor="middle" pointer-events="none" font-family="sans-serif" dy="1.5625" font-size="25" fill="#2A2C34"/><text text-anchor="middle" pointer-events="none" x="0" y="-5" font-size="10px" fill="#2A2C34" font-family="sans-serif"> The</text><text text-anchor="middle" pointer-events="none" x="0" y="5" font-size="10px" fill="#2A2C34" font-family="sans-serif"> Matrix</text><text text-anchor="middle" pointer-events="none" x="0" y="15" font-size="10px" fill="#2A2C34" font-family="sans-serif"> Reloa…</text></g><g class="node" transform="translate(-276.6114562029203,208.6174592617573)"><circle class="outline" cx="0" cy="0" r="25" fill="#57C7E3" stroke="#23b3d7" stroke-width="2px"/><text text-anchor="middle" pointer-events="none" font-family="sans-serif" dy="1.5625" font-size="25" fill="#2A2C34"/><text text-anchor="middle" pointer-events="none" font-family="sans-serif" dy="1.5625" font-size="25" fill="#2A2C34"/><text text-anchor="middle" pointer-events="none" x="0" y="0" font-size="10px" fill="#2A2C34" font-family="sans-serif"> The</text><text text-anchor="middle" pointer-events="none" x="0" y="10" font-size="10px" fill="#2A2C34" font-family="sans-serif"> Matrix</text></g><g class="node" transform="translate(-199.0410707289227,289.74560133842516)"><circle class="outline" cx="0" cy="0" r="25" fill="#F79767" stroke="#f36924" stroke-width="2px"/><text text-anchor="middle" pointer-events="none" font-family="sans-serif" dy="1.5625" font-size="25" fill="#FFFFFF"/><text text-anchor="middle" pointer-events="none" font-family="sans-serif" dy="1.5625" font-size="25" fill="#FFFFFF"/><text text-anchor="middle" pointer-events="none" x="0" y="0" font-size="10px" fill="#FFFFFF" font-family="sans-serif"> Emil</text><text text-anchor="middle" pointer-events="none" x="0" y="10" font-size="10px" fill="#FFFFFF" font-family="sans-serif"> Eifrem</text></g></g></svg>