<svg xmlns="http://www.w3.org/2000/svg" width="286.45477294921875" height="265.83154296875" viewBox="-53.99638366699219 -34.30807876586914 286.45477294921875 265.83154296875"><title>Neo4j Graph Visualization</title><desc>Created using Neo4j (http://www.neo4j.com/)</desc><g class="layer relationships"><g class="relationship" transform="translate(153.7232547732752 195.95634738984694) rotate(235.56351137478453)"><path class="outline" fill="#A5ABB6" stroke="none" d="M 25 0.5 L 31.379822445104686 0.5 L 31.379822445104686 -0.5 L 25 -0.5 Z M 76.94232244510468 0.5 L 83.32214489020937 0.5 L 83.32214489020937 3.5 L 90.32214489020937 0 L 83.32214489020937 -3.5 L 83.32214489020937 -0.5 L 76.94232244510468 -0.5 Z"/><text text-anchor="middle" pointer-events="none" font-size="8px" fill="#000000" x="54.161072445104686" y="3" transform="rotate(180 54.161072445104686 0)" font-family="sans-serif">ACTED_IN</text></g><g class="relationship" transform="translate(203.45837392075015 104.05506720415873) rotate(181.60012576298993)"><path class="outline" fill="#A5ABB6" stroke="none" d="M 25 0.5 L 30.55156367833913 0.5 L 30.55156367833913 -0.5 L 25 -0.5 Z M 77.44218867833914 0.5 L 82.99375235667826 0.5 L 82.99375235667826 3.5 L 89.99375235667826 0 L 82.99375235667826 -3.5 L 82.99375235667826 -0.5 L 77.44218867833914 -0.5 Z"/><text text-anchor="middle" pointer-events="none" font-size="8px" fill="#000000" x="53.99687617833913" y="3" transform="rotate(180 53.99687617833913 0)" font-family="sans-serif">DIRECTED</text></g><g class="relationship" transform="translate(153.40952788118815 6.129838885525867) rotate(484.41973295828893)"><path class="outline" fill="#A5ABB6" stroke="none" d="M 25 0.5 L 36.02144903079496 0.5 L 36.02144903079496 -0.5 L 25 -0.5 Z M 71.79488653079497 0.5 L 82.81633556158992 0.5 L 82.81633556158992 3.5 L 89.81633556158992 0 L 82.81633556158992 -3.5 L 82.81633556158992 -0.5 L 71.79488653079497 -0.5 Z"/><text text-anchor="middle" pointer-events="none" font-size="8px" fill="#000000" x="53.90816778079496" y="3" transform="rotate(180 53.90816778079496 0)" font-family="sans-serif">WROTE</text></g><g class="relationship" transform="translate(44.529480319584586 -5.308077856678293) rotate(427.49523095402105)"><path class="outline" fill="#A5ABB6" stroke="none" d="M 25 0.5 L 31.16982199402105 0.5 L 31.16982199402105 -0.5 L 25 -0.5 Z M 76.73232199402105 0.5 L 82.9021439880421 0.5 L 82.9021439880421 3.5 L 89.9021439880421 0 L 82.9021439880421 -3.5 L 82.9021439880421 -0.5 L 76.73232199402105 -0.5 Z"/><text text-anchor="middle" pointer-events="none" font-size="8px" fill="#000000" x="53.95107199402105" y="3" font-family="sans-serif">ACTED_IN</text></g><g class="relationship" transform="translate(-24.996381120516034 97.06957003677392) rotate(361.90456536479195)"><path class="outline" fill="#A5ABB6" stroke="none" d="M 25 0.5 L 30.50304132602797 0.5 L 30.50304132602797 -0.5 L 25 -0.5 Z M 76.06554132602797 0.5 L 81.56858265205594 0.5 L 81.56858265205594 3.5 L 88.56858265205594 0 L 81.56858265205594 -3.5 L 81.56858265205594 -0.5 L 76.06554132602797 -0.5 Z"/><text text-anchor="middle" pointer-events="none" font-size="8px" fill="#000000" x="53.28429132602797" y="3" font-family="sans-serif">ACTED_IN</text></g><g class="relationship" transform="translate(36.50900698393564 202.52345116763556) rotate(297.0859104562612)"><path class="outline" fill="#A5ABB6" stroke="none" d="M 25 0.5 L 35.71572872401525 0.5 L 35.71572872401525 -0.5 L 25 -0.5 Z M 71.48916622401525 0.5 L 82.2048949480305 0.5 L 82.2048949480305 3.5 L 89.2048949480305 0 L 82.2048949480305 -3.5 L 82.2048949480305 -0.5 L 71.48916622401525 -0.5 Z"/><text text-anchor="middle" pointer-events="none" font-size="8px" fill="#000000" x="53.60244747401525" y="3" font-family="sans-serif">WROTE</text></g></g><g class="layer nodes"><g class="node" transform="translate(88.5094629465128,100.84400088502065)"><circle class="outline" cx="0" cy="0" r="25" fill="#57C7E3" stroke="#23b3d7" stroke-width="2px"/><text text-anchor="middle" pointer-events="none" font-family="sans-serif" dy="1.5625" font-size="25" fill="#2A2C34"/><text text-anchor="middle" pointer-events="none" font-family="sans-serif" dy="1.5625" font-size="25" fill="#2A2C34"/><text text-anchor="middle" pointer-events="none" font-family="sans-serif" dy="1.5625" font-size="25" fill="#2A2C34"/><text text-anchor="middle" pointer-events="none" x="0" y="-5" font-size="10px" fill="#2A2C34" font-family="sans-serif"> Captain</text><text text-anchor="middle" pointer-events="none" x="0" y="5" font-size="10px" fill="#2A2C34" font-family="sans-serif"> America:</text><text text-anchor="middle" pointer-events="none" x="0" y="15" font-size="10px" fill="#2A2C34" font-family="sans-serif"> The Fi…</text></g><g class="node" transform="translate(153.7232547732752,195.95634738984694)"><circle class="outline" cx="0" cy="0" r="25" fill="#F79767" stroke="#f36924" stroke-width="2px"/><text text-anchor="middle" pointer-events="none" font-family="sans-serif" dy="1.5625" font-size="25" fill="#FFFFFF"/><text text-anchor="middle" pointer-events="none" font-family="sans-serif" dy="1.5625" font-size="25" fill="#FFFFFF"/><text text-anchor="middle" pointer-events="none" x="0" y="0" font-size="10px" fill="#FFFFFF" font-family="sans-serif"> Chris</text><text text-anchor="middle" pointer-events="none" x="0" y="10" font-size="10px" fill="#FFFFFF" font-family="sans-serif"> Evans</text></g><g class="node" transform="translate(203.45837392075015,104.05506720415873)"><circle class="outline" cx="0" cy="0" r="25" fill="#F79767" stroke="#f36924" stroke-width="2px"/><text text-anchor="middle" pointer-events="none" font-family="sans-serif" dy="1.5625" font-size="25" fill="#FFFFFF"/><text text-anchor="middle" pointer-events="none" font-family="sans-serif" dy="1.5625" font-size="25" fill="#FFFFFF"/><text text-anchor="middle" pointer-events="none" x="0" y="0" font-size="10px" fill="#FFFFFF" font-family="sans-serif"> Joe</text><text text-anchor="middle" pointer-events="none" x="0" y="10" font-size="10px" fill="#FFFFFF" font-family="sans-serif"> Johnston</text></g><g class="node" transform="translate(153.40952788118815,6.129838885525867)"><circle class="outline" cx="0" cy="0" r="25" fill="#F79767" stroke="#f36924" stroke-width="2px"/><text text-anchor="middle" pointer-events="none" font-family="sans-serif" dy="1.5625" font-size="25" fill="#FFFFFF"/><text text-anchor="middle" pointer-events="none" font-family="sans-serif" dy="1.5625" font-size="25" fill="#FFFFFF"/><text text-anchor="middle" pointer-events="none" x="0" y="0" font-size="10px" fill="#FFFFFF" font-family="sans-serif"> Stephen</text><text text-anchor="middle" pointer-events="none" x="0" y="10" font-size="10px" fill="#FFFFFF" font-family="sans-serif"> McFeely</text></g><g class="node" transform="translate(44.529480319584586,-5.308077856678293)"><circle class="outline" cx="0" cy="0" r="25" fill="#F79767" stroke="#f36924" stroke-width="2px"/><text text-anchor="middle" pointer-events="none" font-family="sans-serif" dy="1.5625" font-size="25" fill="#FFFFFF"/><text text-anchor="middle" pointer-events="none" font-family="sans-serif" dy="1.5625" font-size="25" fill="#FFFFFF"/><text text-anchor="middle" pointer-events="none" font-family="sans-serif" dy="1.5625" font-size="25" fill="#FFFFFF"/><text text-anchor="middle" pointer-events="none" x="0" y="-5" font-size="10px" fill="#FFFFFF" font-family="sans-serif"> Samuel</text><text text-anchor="middle" pointer-events="none" x="0" y="5" font-size="10px" fill="#FFFFFF" font-family="sans-serif"> L.</text><text text-anchor="middle" pointer-events="none" x="0" y="15" font-size="10px" fill="#FFFFFF" font-family="sans-serif"> Jackson</text></g><g class="node" transform="translate(-24.996381120516034,97.06957003677392)"><circle class="outline" cx="0" cy="0" r="25" fill="#F79767" stroke="#f36924" stroke-width="2px"/><text text-anchor="middle" pointer-events="none" font-family="sans-serif" dy="1.5625" font-size="25" fill="#FFFFFF"/><text text-anchor="middle" pointer-events="none" font-family="sans-serif" dy="1.5625" font-size="25" fill="#FFFFFF"/><text text-anchor="middle" pointer-events="none" x="0" y="0" font-size="10px" fill="#FFFFFF" font-family="sans-serif"> Hugo</text><text text-anchor="middle" pointer-events="none" x="0" y="10" font-size="10px" fill="#FFFFFF" font-family="sans-serif"> Weaving</text></g><g class="node" transform="translate(36.50900698393564,202.52345116763556)"><circle class="outline" cx="0" cy="0" r="25" fill="#F79767" stroke="#f36924" stroke-width="2px"/><text text-anchor="middle" pointer-events="none" font-family="sans-serif" dy="1.5625" font-size="25" fill="#FFFFFF"/><text text-anchor="middle" pointer-events="none" x="0" y="5" font-size="10px" fill="#FFFFFF" font-family="sans-serif"> Christop…</text></g></g></svg>