<svg xmlns="http://www.w3.org/2000/svg" width="379.6513671875" height="371.0458679199219" viewBox="-92.24042510986328 -82.77389526367188 379.6513671875 371.0458679199219"><title>Neo4j Graph Visualization</title><desc>Created using Neo4j (http://www.neo4j.com/)</desc><g class="layer relationships"><g class="relationship" transform="translate(152.13547285878883 259.27196207680214) rotate(305.688439566243)"><path class="outline" fill="#A5ABB6" stroke="none" d="M 24.018736134675446,6.953439040707552 L 24.277555179777966,5.987513214418485 A 100.09300248097937 100.09300248097937 0 0 0 25.478543755433595,6.3013484345971875 L 25.231723436974168,7.2704096970546175 A 101.09300248097937 101.09300248097937 0 0 1 24.018736134675446,6.953439040707552 Z M 71.92370997016776,8.032802152063681 L 71.70865869131285,7.056199393792511 A 100.09300248097937 100.09300248097937 0 0 0 72.91925300027545,6.781740793294676 L 72.23781507954028,3.860158626012001 L 79.84985104405754,5.6786493394597315 L 73.827836894589,10.677183683004909 L 73.14639897385383,7.755601515722234 A 101.09300248097937 101.09300248097937 0 0 1 71.92370997016776,8.032802152063681"/><text text-anchor="middle" pointer-events="none" font-size="8px" fill="#000000" x="48.541254588172066" y="12.884692820935811" font-family="sans-serif">DIRECTED</text></g><g class="relationship" transform="translate(152.13547285878883 259.27196207680214) rotate(305.688439566243)"><path class="outline" fill="#A5ABB6" stroke="none" d="M 24.018736134675446,-6.953439040707552 L 24.277555179777966,-5.987513214418485 A 100.09300248097937 100.09300248097937 0 0 1 30.87336847008112,-7.517758123907129 L 30.680446272178852,-8.498972180857265 A 101.09300248097937 101.09300248097937 0 0 0 24.018736134675446,-6.953439040707552 Z M 66.43778215922774,-9.082822325509625 L 66.27699702814078,-8.095832892120725 A 100.09300248097937 100.09300248097937 0 0 1 72.91925300027545,-6.781740793294676 L 72.23781507954028,-3.860158626012001 L 79.84985104405754,-5.6786493394597315 L 73.827836894589,-10.677183683004909 L 73.14639897385383,-7.755601515722234 A 101.09300248097937 101.09300248097937 0 0 0 66.43778215922774,-9.082822325509625"/><text text-anchor="middle" pointer-events="none" font-size="8px" fill="#000000" x="48.54125458817205" y="-6.884692820935811" font-family="sans-serif">WROTE</text></g><g class="relationship" transform="translate(258.41095842483986 80.81248177983773) rotate(475.86429872611166)"><path class="outline" fill="#A5ABB6" stroke="none" d="M 24.018736134675446,6.953439040707552 L 24.277555179777966,5.987513214418485 A 100.25339749378749 100.25339749378749 0 0 0 25.51766096542835,6.311316752576914 L 25.27121163363881,7.280472429886032 A 101.25339749378749 101.25339749378749 0 0 1 24.018736134675446,6.953439040707552 Z M 71.96418927504439,8.042331184027304 L 71.74948886966811,7.065651228293973 A 100.25339749378749 100.25339749378749 0 0 0 72.9994983098353,6.782477270415889 L 72.3179915950975,3.8609111496910353 L 79.93007037731627,5.679222622815128 L 73.90817392948573,10.677898764715692 L 73.22666721474792,7.75633264399084 A 101.25339749378749 101.25339749378749 0 0 1 71.96418927504439,8.042331184027304"/><text text-anchor="middle" pointer-events="none" font-size="8px" fill="#000000" x="48.581335328833454" y="12.890156130574738" transform="rotate(180 48.581335328833454 9.890156130574738)" font-family="sans-serif">DIRECTED</text></g><g class="relationship" transform="translate(258.41095842483986 80.81248177983773) rotate(475.86429872611166)"><path class="outline" fill="#A5ABB6" stroke="none" d="M 24.018736134675446,-6.953439040707552 L 24.277555179777966,-5.987513214418485 A 100.25339749378749 100.25339749378749 0 0 1 30.912942612917202,-7.5259086051188575 L 30.720309728074742,-8.507179501292427 A 101.25339749378749 101.25339749378749 0 0 0 24.018736134675446,-6.953439040707552 Z M 66.47797166184658,-9.09061386654291 L 66.31745430364693,-8.103580849001645 A 100.25339749378749 100.25339749378749 0 0 1 72.9994983098353,-6.782477270415889 L 72.3179915950975,-3.8609111496910353 L 79.93007037731627,-5.679222622815128 L 73.90817392948573,-10.677898764715692 L 73.22666721474792,-7.75633264399084 A 101.25339749378749 101.25339749378749 0 0 0 66.47797166184658,-9.09061386654291"/><text text-anchor="middle" pointer-events="none" font-size="8px" fill="#000000" x="48.58133532883345" y="-6.890156130574738" transform="rotate(180 48.58133532883345 -9.890156130574738)" font-family="sans-serif">WROTE</text></g><g class="relationship" transform="translate(143.12634700928254 -53.773890430443224) rotate(534.7346013287162)"><path class="outline" fill="#A5ABB6" stroke="none" d="M 21.40063509461097,12.933012701892217 L 21.90063509461097,12.06698729810778 A 56.68500477115718 56.68500477115718 0 0 0 23.843605809423785,13.138614734229805 L 23.37788243553781,14.023545092515846 A 57.68500477115718 57.68500477115718 0 0 1 21.40063509461097,12.933012701892217 Z M 73.8202048436183,15.62309630090148 L 73.41148393847213,14.710436878281804 A 56.68500477115718 56.68500477115718 0 0 0 75.41844645648496,13.764063795527889 L 74.08606715734241,11.076171423572415 L 81.91225854090482,11.103160826187867 L 77.194952188675,17.347920291468522 L 75.86257288953246,14.660027919513048 A 57.68500477115718 57.68500477115718 0 0 1 73.8202048436183,15.62309630090148"/><text text-anchor="middle" pointer-events="none" font-size="8px" fill="#000000" x="48.430683483053656" y="23.132608234086142" transform="rotate(180 48.430683483053656 20.132608234086142)" font-family="sans-serif">PRODUCED</text></g><g class="relationship" transform="translate(143.12634700928254 -53.773890430443224) rotate(534.7346013287162)"><path class="outline" fill="#A5ABB6" stroke="none" d="M 25 0.5 L 25.210368320266888 0.5 L 25.210368320266888 -0.5 L 25 -0.5 Z M 72.1009933202669 0.5 L 72.31136164053378 0.5 L 72.31136164053378 3.5 L 79.31136164053378 0 L 72.31136164053378 -3.5 L 72.31136164053378 -0.5 L 72.1009933202669 -0.5 Z"/><text text-anchor="middle" pointer-events="none" font-size="8px" fill="#000000" x="48.65568082026689" y="3" transform="rotate(180 48.65568082026689 0)" font-family="sans-serif">DIRECTED</text></g><g class="relationship" transform="translate(143.12634700928254 -53.773890430443224) rotate(534.7346013287162)"><path class="outline" fill="#A5ABB6" stroke="none" d="M 21.40063509461097,-12.933012701892217 L 21.90063509461097,-12.06698729810778 A 56.68500477115718 56.68500477115718 0 0 1 31.09983909523435,-16.331032035222613 L 30.76212547128321,-17.27228094395919 A 57.68500477115718 57.68500477115718 0 0 0 21.40063509461097,-12.933012701892217 Z M 66.24496633122456,-18.397459529419855 L 65.96756618339556,-17.436705056110227 A 56.68500477115718 56.68500477115718 0 0 1 75.41844645648496,-13.764063795527889 L 74.08606715734241,-11.076171423572415 L 81.91225854090482,-11.103160826187867 L 77.194952188675,-17.347920291468522 L 75.86257288953246,-14.660027919513048 A 57.68500477115718 57.68500477115718 0 0 0 66.24496633122456,-18.397459529419855"/><text text-anchor="middle" pointer-events="none" font-size="8px" fill="#000000" x="48.430683483053635" y="-17.132608234086142" transform="rotate(180 48.430683483053635 -20.132608234086142)" font-family="sans-serif">WROTE</text></g><g class="relationship" transform="translate(-63.24042376311452 98.98476783694832) rotate(432.50378623633486)"><path class="outline" fill="#A5ABB6" stroke="none" d="M 21.40063509461097,12.933012701892217 L 21.90063509461097,12.06698729810778 A 57.581600370836334 57.581600370836334 0 0 0 31.520641355606074,16.49646401964977 L 31.187708720858872,17.439414633796815 A 58.581600370836334 58.581600370836334 0 0 1 21.40063509461097,12.933012701892217 Z M 66.68392014625587,18.556263100988104 L 66.41092513135374,17.59424765317108 A 57.581600370836334 57.581600370836334 0 0 0 76.29036444729812,13.778299109120843 L 74.95666085088502,11.091063593406833 L 82.78286458336633,11.11419663677592 L 78.06863590918226,17.36127979673952 L 76.73493231276916,14.67404428102551 A 58.581600370836334 58.581600370836334 0 0 1 66.68392014625587,18.556263100988104"/><text text-anchor="middle" pointer-events="none" font-size="8px" fill="#000000" x="48.864866795039184" y="23.25273060154825" font-family="sans-serif">WROTE</text></g><g class="relationship" transform="translate(-63.24042376311452 98.98476783694832) rotate(432.50378623633486)"><path class="outline" fill="#A5ABB6" stroke="none" d="M 25 0.5 L 25.642934440491544 0.5 L 25.642934440491544 -0.5 L 25 -0.5 Z M 72.53355944049154 0.5 L 73.17649388098309 0.5 L 73.17649388098309 3.5 L 80.17649388098309 0 L 73.17649388098309 -3.5 L 73.17649388098309 -0.5 L 72.53355944049154 -0.5 Z"/><text text-anchor="middle" pointer-events="none" font-size="8px" fill="#000000" x="49.088246940491544" y="3" font-family="sans-serif">DIRECTED</text></g><g class="relationship" transform="translate(-63.24042376311452 98.98476783694832) rotate(432.50378623633486)"><path class="outline" fill="#A5ABB6" stroke="none" d="M 21.40063509461097,-12.933012701892217 L 21.90063509461097,-12.06698729810778 A 57.581600370836334 57.581600370836334 0 0 1 24.243723218654605,-13.348262549625765 L 23.784414830366572,-14.236539423380925 A 58.581600370836334 58.581600370836334 0 0 0 21.40063509461097,-12.933012701892217 Z M 74.27392079067425,-15.825135081245136 L 73.87136289943601,-14.909740551983667 A 57.581600370836334 57.581600370836334 0 0 1 76.29036444729812,-13.778299109120843 L 74.95666085088502,-11.091063593406833 L 82.78286458336633,-11.11419663677592 L 78.06863590918226,-17.36127979673952 L 76.73493231276916,-14.67404428102551 A 58.581600370836334 58.581600370836334 0 0 0 74.27392079067425,-15.825135081245136"/><text text-anchor="middle" pointer-events="none" font-size="8px" fill="#000000" x="48.86486679503916" y="-17.25273060154825" font-family="sans-serif">PRODUCED</text></g></g><g class="layer nodes"><g class="node" transform="translate(152.13547285878883,259.27196207680214)"><circle class="outline" cx="0" cy="0" r="25" fill="#F79767" stroke="#f36924" stroke-width="2px"/><text text-anchor="middle" pointer-events="none" font-family="sans-serif" dy="1.5625" font-size="25" fill="#FFFFFF"/><text text-anchor="middle" pointer-events="none" font-family="sans-serif" dy="1.5625" font-size="25" fill="#FFFFFF"/><text text-anchor="middle" pointer-events="none" x="0" y="0" font-size="10px" fill="#FFFFFF" font-family="sans-serif"> Lilly</text><text text-anchor="middle" pointer-events="none" x="0" y="10" font-size="10px" fill="#FFFFFF" font-family="sans-serif"> Wacho…</text></g><g class="node" transform="translate(212.92127426634264,174.64354083515306)"><circle class="outline" cx="0" cy="0" r="25" fill="#57C7E3" stroke="#23b3d7" stroke-width="2px"/><text text-anchor="middle" pointer-events="none" font-family="sans-serif" dy="1.5625" font-size="25" fill="#2A2C34"/><text text-anchor="middle" pointer-events="none" font-family="sans-serif" dy="1.5625" font-size="25" fill="#2A2C34"/><text text-anchor="middle" pointer-events="none" x="0" y="0" font-size="10px" fill="#2A2C34" font-family="sans-serif"> Speed</text><text text-anchor="middle" pointer-events="none" x="0" y="10" font-size="10px" fill="#2A2C34" font-family="sans-serif"> Racer</text></g><g class="node" transform="translate(258.41095842483986,80.81248177983773)"><circle class="outline" cx="0" cy="0" r="25" fill="#F79767" stroke="#f36924" stroke-width="2px"/><text text-anchor="middle" pointer-events="none" font-family="sans-serif" dy="1.5625" font-size="25" fill="#FFFFFF"/><text text-anchor="middle" pointer-events="none" font-family="sans-serif" dy="1.5625" font-size="25" fill="#FFFFFF"/><text text-anchor="middle" pointer-events="none" x="0" y="0" font-size="10px" fill="#FFFFFF" font-family="sans-serif"> Lana</text><text text-anchor="middle" pointer-events="none" x="0" y="10" font-size="10px" fill="#FFFFFF" font-family="sans-serif"> Wacho…</text></g><g class="node" transform="translate(143.12634700928254,-53.773890430443224)"><circle class="outline" cx="0" cy="0" r="25" fill="#F79767" stroke="#f36924" stroke-width="2px"/><text text-anchor="middle" pointer-events="none" font-family="sans-serif" dy="1.5625" font-size="25" fill="#FFFFFF"/><text text-anchor="middle" pointer-events="none" font-family="sans-serif" dy="1.5625" font-size="25" fill="#FFFFFF"/><text text-anchor="middle" pointer-events="none" x="0" y="0" font-size="10px" fill="#FFFFFF" font-family="sans-serif"> Cameron</text><text text-anchor="middle" pointer-events="none" x="0" y="10" font-size="10px" fill="#FFFFFF" font-family="sans-serif"> Crowe</text></g><g class="node" transform="translate(39.25514803569412,-44.201315484723395)"><circle class="outline" cx="0" cy="0" r="25" fill="#57C7E3" stroke="#23b3d7" stroke-width="2px"/><text text-anchor="middle" pointer-events="none" font-family="sans-serif" dy="1.5625" font-size="25" fill="#2A2C34"/><text text-anchor="middle" pointer-events="none" font-family="sans-serif" dy="1.5625" font-size="25" fill="#2A2C34"/><text text-anchor="middle" pointer-events="none" x="0" y="0" font-size="10px" fill="#2A2C34" font-family="sans-serif"> Jerry</text><text text-anchor="middle" pointer-events="none" x="0" y="10" font-size="10px" fill="#2A2C34" font-family="sans-serif"> Maguire</text></g><g class="node" transform="translate(-63.24042376311452,98.98476783694832)"><circle class="outline" cx="0" cy="0" r="25" fill="#F79767" stroke="#f36924" stroke-width="2px"/><text text-anchor="middle" pointer-events="none" font-family="sans-serif" dy="1.5625" font-size="25" fill="#FFFFFF"/><text text-anchor="middle" pointer-events="none" font-family="sans-serif" dy="1.5625" font-size="25" fill="#FFFFFF"/><text text-anchor="middle" pointer-events="none" x="0" y="0" font-size="10px" fill="#FFFFFF" font-family="sans-serif"> Nancy</text><text text-anchor="middle" pointer-events="none" x="0" y="10" font-size="10px" fill="#FFFFFF" font-family="sans-serif"> Meyers</text></g><g class="node" transform="translate(-31.619870772985934,199.29546264909158)"><circle class="outline" cx="0" cy="0" r="25" fill="#57C7E3" stroke="#23b3d7" stroke-width="2px"/><text text-anchor="middle" pointer-events="none" font-family="sans-serif" dy="1.5625" font-size="25" fill="#2A2C34"/><text text-anchor="middle" pointer-events="none" x="0" y="5" font-size="10px" fill="#2A2C34" font-family="sans-serif"> Somethi…</text></g></g></svg>