<svg xmlns="http://www.w3.org/2000/svg" width="703.8218383789062" height="314.1303405761719" viewBox="-257.853759765625 -71.1099624633789 703.8218383789062 314.1303405761719"><title>Neo4j Graph Visualization</title><desc>Created using Neo4j (http://www.neo4j.com/)</desc><g class="layer relationships"><g class="relationship" transform="translate(-228.85377076813154 21.483720774749578) rotate(371.1149444627046)"><path class="outline" fill="#A5ABB6" stroke="none" d="M 25 0.5 L 102.4129351744399 0.5 L 102.4129351744399 -0.5 L 25 -0.5 Z M 147.9754351744399 0.5 L 225.3883703488798 0.5 L 225.3883703488798 3.5 L 232.3883703488798 0 L 225.3883703488798 -3.5 L 225.3883703488798 -0.5 L 147.9754351744399 -0.5 Z"/><text text-anchor="middle" pointer-events="none" font-size="8px" fill="#000000" x="125.1941851744399" y="3" font-family="sans-serif">ACTED_IN</text></g><g class="relationship" transform="translate(-228.85377076813154 21.483720774749578) rotate(375.37418185183805)"><path class="outline" fill="#A5ABB6" stroke="none" d="M 25 0.5 L 152.98824436284258 0.5 L 152.98824436284258 -0.5 L 25 -0.5 Z M 198.55074436284258 0.5 L 326.53898872568516 0.5 L 326.53898872568516 3.5 L 333.53898872568516 0 L 326.53898872568516 -3.5 L 326.53898872568516 -0.5 L 198.55074436284258 -0.5 Z"/><text text-anchor="middle" pointer-events="none" font-size="8px" fill="#000000" x="175.76949436284258" y="3" font-family="sans-serif">ACTED_IN</text></g><g class="relationship" transform="translate(-228.85377076813154 21.483720774749578) rotate(379.1216837175942)"><path class="outline" fill="#A5ABB6" stroke="none" d="M 25 0.5 L 125.02551164031945 0.5 L 125.02551164031945 -0.5 L 25 -0.5 Z M 170.58801164031945 0.5 L 270.6135232806389 0.5 L 270.6135232806389 3.5 L 277.6135232806389 0 L 270.6135232806389 -3.5 L 270.6135232806389 -0.5 L 170.58801164031945 -0.5 Z"/><text text-anchor="middle" pointer-events="none" font-size="8px" fill="#000000" x="147.80676164031945" y="3" font-family="sans-serif">ACTED_IN</text></g><g class="relationship" transform="translate(-228.85377076813154 21.483720774749578) rotate(385.0008362677068)"><path class="outline" fill="#A5ABB6" stroke="none" d="M 25 0.5 L 149.80242709643016 0.5 L 149.80242709643016 -0.5 L 25 -0.5 Z M 195.36492709643016 0.5 L 320.16735419286033 0.5 L 320.16735419286033 3.5 L 327.16735419286033 0 L 320.16735419286033 -3.5 L 320.16735419286033 -0.5 L 195.36492709643016 -0.5 Z"/><text text-anchor="middle" pointer-events="none" font-size="8px" fill="#000000" x="172.58367709643016" y="3" font-family="sans-serif">ACTED_IN</text></g><g class="relationship" transform="translate(-228.85377076813154 21.483720774749578) rotate(368.2914044138901)"><path class="outline" fill="#A5ABB6" stroke="none" d="M 25 0.5 L 131.4768180772824 0.5 L 131.4768180772824 -0.5 L 25 -0.5 Z M 177.0393180772824 0.5 L 283.5161361545648 0.5 L 283.5161361545648 3.5 L 290.5161361545648 0 L 283.5161361545648 -3.5 L 283.5161361545648 -0.5 L 177.0393180772824 -0.5 Z"/><text text-anchor="middle" pointer-events="none" font-size="8px" fill="#000000" x="154.2580680772824" y="3" font-family="sans-serif">ACTED_IN</text></g><g class="relationship" transform="translate(62.24685881516356 -42.109960639285305) rotate(468.7998066422674)"><path class="outline" fill="#A5ABB6" stroke="none" d="M 25 0.5 L 32.85103889087112 0.5 L 32.85103889087112 -0.5 L 25 -0.5 Z M 79.74166389087112 0.5 L 87.59270278174225 0.5 L 87.59270278174225 3.5 L 94.59270278174225 0 L 87.59270278174225 -3.5 L 87.59270278174225 -0.5 L 79.74166389087112 -0.5 Z"/><text text-anchor="middle" pointer-events="none" font-size="8px" fill="#000000" x="56.29635139087112" y="3" transform="rotate(180 56.29635139087112 0)" font-family="sans-serif">DIRECTED</text></g><g class="relationship" transform="translate(416.9680788001597 131.7376662882745) rotate(182.89893667876436)"><path class="outline" fill="#A5ABB6" stroke="none" d="M 24.018736134675446,6.953439040707552 L 24.277555179777966,5.987513214418485 A 484.1506743703967 484.1506743703967 0 0 0 120.88316569315187,21.633037000401828 L 120.8238828991121,22.631278228928693 A 485.1506743703967 485.1506743703967 0 0 1 24.018736134675446,6.953439040707552 Z M 172.6330024676937,22.936767217685258 L 172.58549551103218,21.937896310576264 A 484.1506743703967 484.1506743703967 0 0 0 269.3688878485256,7.432677772192761 L 268.62665661484056,4.525945449507648 L 276.2749684737384,6.185260280708537 L 270.358529493439,11.308320869106247 L 269.61629825975393,8.401588546421133 A 485.1506743703967 485.1506743703967 0 0 1 172.6330024676937,22.936767217685258"/><text text-anchor="middle" pointer-events="none" font-size="8px" fill="#000000" x="146.72730998018426" y="25.976122467163975" transform="rotate(180 146.72730998018426 22.976122467163975)" font-family="sans-serif">PRODUCED</text></g><g class="relationship" transform="translate(416.9680788001597 131.7376662882745) rotate(182.89893667876436)"><path class="outline" fill="#A5ABB6" stroke="none" d="M 24.018736134675446,-6.953439040707552 L 24.277555179777966,-5.987513214418485 A 484.1506743703967 484.1506743703967 0 0 1 128.86830317123855,-22.04111422754994 L 128.82551346065563,-23.04019832844847 A 485.1506743703967 485.1506743703967 0 0 0 24.018736134675446,-6.953439040707552 Z M 164.62710611482558,-23.251300011450894 L 164.59610103433533,-22.251780784530354 A 484.1506743703967 484.1506743703967 0 0 1 269.3688878485256,-7.432677772192761 L 268.62665661484056,-4.525945449507648 L 276.2749684737384,-6.185260280708537 L 270.358529493439,-11.308320869106247 L 269.61629825975393,-8.401588546421133 A 485.1506743703967 485.1506743703967 0 0 0 164.62710611482558,-23.251300011450894"/><text text-anchor="middle" pointer-events="none" font-size="8px" fill="#000000" x="146.72730998018417" y="-19.976122467163975" transform="rotate(180 146.72730998018417 -22.976122467163975)" font-family="sans-serif">WROTE</text></g><g class="relationship" transform="translate(416.9680788001597 131.7376662882745) rotate(188.76514600533494)"><path class="outline" fill="#A5ABB6" stroke="none" d="M 25 0.5 L 172.00895387183283 0.5 L 172.00895387183283 -0.5 L 25 -0.5 Z M 218.89957887183283 0.5 L 365.90853274366566 0.5 L 365.90853274366566 3.5 L 372.90853274366566 0 L 365.90853274366566 -3.5 L 365.90853274366566 -0.5 L 218.89957887183283 -0.5 Z"/><text text-anchor="middle" pointer-events="none" font-size="8px" fill="#000000" x="195.45426637183283" y="3" transform="rotate(180 195.45426637183283 0)" font-family="sans-serif">DIRECTED</text></g><g class="relationship" transform="translate(416.9680788001597 131.7376662882745) rotate(181.77052946820322)"><path class="outline" fill="#A5ABB6" stroke="none" d="M 25 0.5 L 153.09315313745307 0.5 L 153.09315313745307 -0.5 L 25 -0.5 Z M 199.98377813745307 0.5 L 328.07693127490614 0.5 L 328.07693127490614 3.5 L 335.07693127490614 0 L 328.07693127490614 -3.5 L 328.07693127490614 -0.5 L 199.98377813745307 -0.5 Z"/><text text-anchor="middle" pointer-events="none" font-size="8px" fill="#000000" x="176.53846563745307" y="3" transform="rotate(180 176.53846563745307 0)" font-family="sans-serif">DIRECTED</text></g><g class="relationship" transform="translate(416.9680788001597 131.7376662882745) rotate(533.263621630359)"><path class="outline" fill="#A5ABB6" stroke="none" d="M 25 0.5 L 137.51607085789465 0.5 L 137.51607085789465 -0.5 L 25 -0.5 Z M 184.40669585789465 0.5 L 296.9227667157893 0.5 L 296.9227667157893 3.5 L 303.9227667157893 0 L 296.9227667157893 -3.5 L 296.9227667157893 -0.5 L 184.40669585789465 -0.5 Z"/><text text-anchor="middle" pointer-events="none" font-size="8px" fill="#000000" x="160.96138335789465" y="3" transform="rotate(180 160.96138335789465 0)" font-family="sans-serif">DIRECTED</text></g><g class="relationship" transform="translate(416.9680788001597 131.7376662882745) rotate(190.98478852965724)"><path class="outline" fill="#A5ABB6" stroke="none" d="M 25 0.5 L 142.96973712732466 0.5 L 142.96973712732466 -0.5 L 25 -0.5 Z M 189.86036212732466 0.5 L 307.8300992546493 0.5 L 307.8300992546493 3.5 L 314.8300992546493 0 L 307.8300992546493 -3.5 L 307.8300992546493 -0.5 L 189.86036212732466 -0.5 Z"/><text text-anchor="middle" pointer-events="none" font-size="8px" fill="#000000" x="166.41504962732466" y="3" transform="rotate(180 166.41504962732466 0)" font-family="sans-serif">DIRECTED</text></g><g class="relationship" transform="translate(-42.19032054633277 214.02037517902468) rotate(328.4955025094519)"><path class="outline" fill="#A5ABB6" stroke="none" d="M 24.018736134675446,6.953439040707552 L 24.277555179777966,5.987513214418485 A 262.43732783860975 262.43732783860975 0 0 0 63.9551416433187,13.405348201540335 L 63.847511405046056,14.39953919516745 A 263.43732783860975 263.43732783860975 0 0 1 24.018736134675446,6.953439040707552 Z M 115.64115881793069,14.88497520518655 L 115.55218196244851,13.888941511384758 A 262.43732783860975 262.43732783860975 0 0 0 155.36183329807164,7.216100736720555 L 154.63982663787553,4.304278904493781 L 162.2764186833001,6.016722168300793 L 156.32450884499977,11.098529846356252 L 155.60250218480365,8.18670801412948 A 263.43732783860975 263.43732783860975 0 0 1 115.64115881793069,14.88497520518655"/><text text-anchor="middle" pointer-events="none" font-size="8px" fill="#000000" x="89.73706164614853" y="18.418300368599773" font-family="sans-serif">PRODUCED</text></g><g class="relationship" transform="translate(-42.19032054633277 214.02037517902468) rotate(328.4955025094519)"><path class="outline" fill="#A5ABB6" stroke="none" d="M 24.018736134675446,-6.953439040707552 L 24.277555179777966,-5.987513214418485 A 262.43732783860975 262.43732783860975 0 0 1 71.90928053732806,-14.14416602212708 L 71.83195901679582,-15.141172231968596 A 263.43732783860975 263.43732783860975 0 0 0 24.018736134675446,-6.953439040707552 Z M 107.6442131593863,-15.476822618244455 L 107.58559246384606,-14.478542289852498 A 262.43732783860975 262.43732783860975 0 0 1 155.36183329807164,-7.216100736720555 L 154.63982663787553,-4.304278904493781 L 162.2764186833001,-6.016722168300793 L 156.32450884499977,-11.098529846356252 L 155.60250218480365,-8.18670801412948 A 263.43732783860975 263.43732783860975 0 0 0 107.6442131593863,-15.476822618244455"/><text text-anchor="middle" pointer-events="none" font-size="8px" fill="#000000" x="89.7370616461484" y="-12.418300368599773" font-family="sans-serif">WROTE</text></g><g class="relationship" transform="translate(-42.19032054633277 214.02037517902468) rotate(294.7536034593513)"><path class="outline" fill="#A5ABB6" stroke="none" d="M 25 0.5 L 51.74382506838238 0.5 L 51.74382506838238 -0.5 L 25 -0.5 Z M 98.63445006838238 0.5 L 125.37827513676476 0.5 L 125.37827513676476 3.5 L 132.37827513676476 0 L 125.37827513676476 -3.5 L 125.37827513676476 -0.5 L 98.63445006838238 -0.5 Z"/><text text-anchor="middle" pointer-events="none" font-size="8px" fill="#000000" x="75.18913756838238" y="3" font-family="sans-serif">DIRECTED</text></g><g class="relationship" transform="translate(-42.19032054633277 214.02037517902468) rotate(316.73786594265556)"><path class="outline" fill="#A5ABB6" stroke="none" d="M 25 0.5 L 41.20207262610964 0.5 L 41.20207262610964 -0.5 L 25 -0.5 Z M 88.09269762610964 0.5 L 104.29477025221928 0.5 L 104.29477025221928 3.5 L 111.29477025221928 0 L 104.29477025221928 -3.5 L 104.29477025221928 -0.5 L 88.09269762610964 -0.5 Z"/><text text-anchor="middle" pointer-events="none" font-size="8px" fill="#000000" x="64.64738512610964" y="3" font-family="sans-serif">DIRECTED</text></g><g class="relationship" transform="translate(-42.19032054633277 214.02037517902468) rotate(341.7478218019089)"><path class="outline" fill="#A5ABB6" stroke="none" d="M 25 0.5 L 42.81786325421028 0.5 L 42.81786325421028 -0.5 L 25 -0.5 Z M 89.70848825421028 0.5 L 107.52635150842056 0.5 L 107.52635150842056 3.5 L 114.52635150842056 0 L 107.52635150842056 -3.5 L 107.52635150842056 -0.5 L 89.70848825421028 -0.5 Z"/><text text-anchor="middle" pointer-events="none" font-size="8px" fill="#000000" x="66.26317575421028" y="3" font-family="sans-serif">DIRECTED</text></g><g class="relationship" transform="translate(-42.19032054633277 214.02037517902468) rotate(310.49401893107137)"><path class="outline" fill="#A5ABB6" stroke="none" d="M 25 0.5 L 69.72914941051816 0.5 L 69.72914941051816 -0.5 L 25 -0.5 Z M 116.61977441051816 0.5 L 161.34892382103632 0.5 L 161.34892382103632 3.5 L 168.34892382103632 0 L 161.34892382103632 -3.5 L 161.34892382103632 -0.5 L 116.61977441051816 -0.5 Z"/><text text-anchor="middle" pointer-events="none" font-size="8px" fill="#000000" x="93.17446191051816" y="3" font-family="sans-serif">DIRECTED</text></g><g class="relationship" transform="translate(252.30074061186093 -10.9714657946989) rotate(496.7282606566215)"><path class="outline" fill="#A5ABB6" stroke="none" d="M 25 0.5 L 66.06650989610888 0.5 L 66.06650989610888 -0.5 L 25 -0.5 Z M 112.95713489610888 0.5 L 154.02364479221777 0.5 L 154.02364479221777 3.5 L 161.02364479221777 0 L 154.02364479221777 -3.5 L 154.02364479221777 -0.5 L 112.95713489610888 -0.5 Z"/><text text-anchor="middle" pointer-events="none" font-size="8px" fill="#000000" x="89.51182239610888" y="3" transform="rotate(180 89.51182239610888 0)" font-family="sans-serif">DIRECTED</text></g></g><g class="layer nodes"><g class="node" transform="translate(-228.85377076813154,21.483720774749578)"><circle class="outline" cx="0" cy="0" r="25" fill="#F79767" stroke="#f36924" stroke-width="2px"/><text text-anchor="middle" pointer-events="none" font-family="sans-serif" dy="1.5625" font-size="25" fill="#FFFFFF"/><text text-anchor="middle" pointer-events="none" font-family="sans-serif" dy="1.5625" font-size="25" fill="#FFFFFF"/><text text-anchor="middle" pointer-events="none" x="0" y="0" font-size="10px" fill="#FFFFFF" font-family="sans-serif"> Hugo</text><text text-anchor="middle" pointer-events="none" x="0" y="10" font-size="10px" fill="#FFFFFF" font-family="sans-serif"> Weaving</text></g><g class="node" transform="translate(23.70661536991578,71.10251302781188)"><circle class="outline" cx="0" cy="0" r="25" fill="#57C7E3" stroke="#23b3d7" stroke-width="2px"/><text text-anchor="middle" pointer-events="none" font-family="sans-serif" dy="1.5625" font-size="25" fill="#2A2C34"/><text text-anchor="middle" pointer-events="none" font-family="sans-serif" dy="1.5625" font-size="25" fill="#2A2C34"/><text text-anchor="middle" pointer-events="none" x="0" y="0" font-size="10px" fill="#2A2C34" font-family="sans-serif"> Cloud</text><text text-anchor="middle" pointer-events="none" x="0" y="10" font-size="10px" fill="#2A2C34" font-family="sans-serif"> Atlas</text></g><g class="node" transform="translate(62.24685881516356,-42.109960639285305)"><circle class="outline" cx="0" cy="0" r="25" fill="#F79767" stroke="#f36924" stroke-width="2px"/><text text-anchor="middle" pointer-events="none" font-family="sans-serif" dy="1.5625" font-size="25" fill="#FFFFFF"/><text text-anchor="middle" pointer-events="none" font-family="sans-serif" dy="1.5625" font-size="25" fill="#FFFFFF"/><text text-anchor="middle" pointer-events="none" x="0" y="0" font-size="10px" fill="#FFFFFF" font-family="sans-serif"> Tom</text><text text-anchor="middle" pointer-events="none" x="0" y="10" font-size="10px" fill="#FFFFFF" font-family="sans-serif"> Tykwer</text></g><g class="node" transform="translate(416.9680788001597,131.7376662882745)"><circle class="outline" cx="0" cy="0" r="25" fill="#F79767" stroke="#f36924" stroke-width="2px"/><text text-anchor="middle" pointer-events="none" font-family="sans-serif" dy="1.5625" font-size="25" fill="#FFFFFF"/><text text-anchor="middle" pointer-events="none" font-family="sans-serif" dy="1.5625" font-size="25" fill="#FFFFFF"/><text text-anchor="middle" pointer-events="none" x="0" y="0" font-size="10px" fill="#FFFFFF" font-family="sans-serif"> Lana</text><text text-anchor="middle" pointer-events="none" x="0" y="10" font-size="10px" fill="#FFFFFF" font-family="sans-serif"> Wacho…</text></g><g class="node" transform="translate(-42.19032054633277,214.02037517902468)"><circle class="outline" cx="0" cy="0" r="25" fill="#F79767" stroke="#f36924" stroke-width="2px"/><text text-anchor="middle" pointer-events="none" font-family="sans-serif" dy="1.5625" font-size="25" fill="#FFFFFF"/><text text-anchor="middle" pointer-events="none" font-family="sans-serif" dy="1.5625" font-size="25" fill="#FFFFFF"/><text text-anchor="middle" pointer-events="none" x="0" y="0" font-size="10px" fill="#FFFFFF" font-family="sans-serif"> Lilly</text><text text-anchor="middle" pointer-events="none" x="0" y="10" font-size="10px" fill="#FFFFFF" font-family="sans-serif"> Wacho…</text></g><g class="node" transform="translate(116.85488914611005,116.54017188005986)"><circle class="outline" cx="0" cy="0" r="25" fill="#57C7E3" stroke="#23b3d7" stroke-width="2px"/><text text-anchor="middle" pointer-events="none" font-family="sans-serif" dy="1.5625" font-size="25" fill="#2A2C34"/><text text-anchor="middle" pointer-events="none" font-family="sans-serif" dy="1.5625" font-size="25" fill="#2A2C34"/><text text-anchor="middle" pointer-events="none" x="0" y="0" font-size="10px" fill="#2A2C34" font-family="sans-serif"> V for</text><text text-anchor="middle" pointer-events="none" x="0" y="10" font-size="10px" fill="#2A2C34" font-family="sans-serif"> Vendetta</text></g><g class="node" transform="translate(252.30074061186093,-10.9714657946989)"><circle class="outline" cx="0" cy="0" r="25" fill="#F79767" stroke="#f36924" stroke-width="2px"/><text text-anchor="middle" pointer-events="none" font-family="sans-serif" dy="1.5625" font-size="25" fill="#FFFFFF"/><text text-anchor="middle" pointer-events="none" font-family="sans-serif" dy="1.5625" font-size="25" fill="#FFFFFF"/><text text-anchor="middle" pointer-events="none" x="0" y="0" font-size="10px" fill="#FFFFFF" font-family="sans-serif"> James</text><text text-anchor="middle" pointer-events="none" x="0" y="10" font-size="10px" fill="#FFFFFF" font-family="sans-serif"> Marshall</text></g><g class="node" transform="translate(57.06305382708711,120.61249503181763)"><circle class="outline" cx="0" cy="0" r="25" fill="#57C7E3" stroke="#23b3d7" stroke-width="2px"/><text text-anchor="middle" pointer-events="none" font-family="sans-serif" dy="1.5625" font-size="25" fill="#2A2C34"/><text text-anchor="middle" pointer-events="none" font-family="sans-serif" dy="1.5625" font-size="25" fill="#2A2C34"/><text text-anchor="middle" pointer-events="none" font-family="sans-serif" dy="1.5625" font-size="25" fill="#2A2C34"/><text text-anchor="middle" pointer-events="none" x="0" y="-5" font-size="10px" fill="#2A2C34" font-family="sans-serif"> The</text><text text-anchor="middle" pointer-events="none" x="0" y="5" font-size="10px" fill="#2A2C34" font-family="sans-serif"> Matrix</text><text text-anchor="middle" pointer-events="none" x="0" y="15" font-size="10px" fill="#2A2C34" font-family="sans-serif"> Revol…</text></g><g class="node" transform="translate(90.31607234172549,170.32073434472406)"><circle class="outline" cx="0" cy="0" r="25" fill="#57C7E3" stroke="#23b3d7" stroke-width="2px"/><text text-anchor="middle" pointer-events="none" font-family="sans-serif" dy="1.5625" font-size="25" fill="#2A2C34"/><text text-anchor="middle" pointer-events="none" font-family="sans-serif" dy="1.5625" font-size="25" fill="#2A2C34"/><text text-anchor="middle" pointer-events="none" font-family="sans-serif" dy="1.5625" font-size="25" fill="#2A2C34"/><text text-anchor="middle" pointer-events="none" x="0" y="-5" font-size="10px" fill="#2A2C34" font-family="sans-serif"> The</text><text text-anchor="middle" pointer-events="none" x="0" y="5" font-size="10px" fill="#2A2C34" font-family="sans-serif"> Matrix</text><text text-anchor="middle" pointer-events="none" x="0" y="15" font-size="10px" fill="#2A2C34" font-family="sans-serif"> Reloa…</text></g><g class="node" transform="translate(83.36441228659942,66.98359268565014)"><circle class="outline" cx="0" cy="0" r="25" fill="#57C7E3" stroke="#23b3d7" stroke-width="2px"/><text text-anchor="middle" pointer-events="none" font-family="sans-serif" dy="1.5625" font-size="25" fill="#2A2C34"/><text text-anchor="middle" pointer-events="none" font-family="sans-serif" dy="1.5625" font-size="25" fill="#2A2C34"/><text text-anchor="middle" pointer-events="none" x="0" y="0" font-size="10px" fill="#2A2C34" font-family="sans-serif"> The</text><text text-anchor="middle" pointer-events="none" x="0" y="10" font-size="10px" fill="#2A2C34" font-family="sans-serif"> Matrix</text></g></g></svg>