<svg xmlns="http://www.w3.org/2000/svg" width="740.6473999023438" height="375.235595703125" viewBox="-255.4437713623047 -101.42863464355469 740.6473999023438 375.235595703125"><title>Neo4j Graph Visualization</title><desc>Created using Neo4j (http://www.neo4j.com/)</desc><g class="layer relationships"><g class="relationship" transform="translate(400.8915178166609 148.5523048024615) rotate(535.4978143135937)"><path class="outline" fill="#A5ABB6" stroke="none" d="M 25 0.5 L 29.42543286584076 0.5 L 29.42543286584076 -0.5 L 25 -0.5 Z M 74.98793286584076 0.5 L 79.41336573168152 0.5 L 79.41336573168152 3.5 L 86.41336573168152 0 L 79.41336573168152 -3.5 L 79.41336573168152 -0.5 L 74.98793286584076 -0.5 Z"/><text text-anchor="middle" pointer-events="none" font-size="8px" fill="#000000" x="52.20668286584076" y="3" transform="rotate(180 52.20668286584076 0)" font-family="sans-serif">ACTED_IN</text></g><g class="relationship" transform="translate(400.8915178166609 148.5523048024615) rotate(483.4513383700294)"><path class="outline" fill="#A5ABB6" stroke="none" d="M 25 0.5 L 31.40087574454094 0.5 L 31.40087574454094 -0.5 L 25 -0.5 Z M 76.96337574454094 0.5 L 83.36425148908188 0.5 L 83.36425148908188 3.5 L 90.36425148908188 0 L 83.36425148908188 -3.5 L 83.36425148908188 -0.5 L 76.96337574454094 -0.5 Z"/><text text-anchor="middle" pointer-events="none" font-size="8px" fill="#000000" x="54.18212574454094" y="3" transform="rotate(180 54.18212574454094 0)" font-family="sans-serif">ACTED_IN</text></g><g class="relationship" transform="translate(400.8915178166609 148.5523048024615) rotate(212.35590365249834)"><path class="outline" fill="#A5ABB6" stroke="none" d="M 25 0.5 L 163.49895219687298 0.5 L 163.49895219687298 -0.5 L 25 -0.5 Z M 209.06145219687298 0.5 L 347.56040439374596 0.5 L 347.56040439374596 3.5 L 354.56040439374596 0 L 347.56040439374596 -3.5 L 347.56040439374596 -0.5 L 209.06145219687298 -0.5 Z"/><text text-anchor="middle" pointer-events="none" font-size="8px" fill="#000000" x="186.28020219687298" y="3" transform="rotate(180 186.28020219687298 0)" font-family="sans-serif">ACTED_IN</text></g><g class="relationship" transform="translate(400.8915178166609 148.5523048024615) rotate(199.42803308244743)"><path class="outline" fill="#A5ABB6" stroke="none" d="M 25 0.5 L 107.2477856136183 0.5 L 107.2477856136183 -0.5 L 25 -0.5 Z M 152.8102856136183 0.5 L 235.0580712272366 0.5 L 235.0580712272366 3.5 L 242.0580712272366 0 L 235.0580712272366 -3.5 L 235.0580712272366 -0.5 L 152.8102856136183 -0.5 Z"/><text text-anchor="middle" pointer-events="none" font-size="8px" fill="#000000" x="130.0290356136183" y="3" transform="rotate(180 130.0290356136183 0)" font-family="sans-serif">ACTED_IN</text></g><g class="relationship" transform="translate(400.8915178166609 148.5523048024615) rotate(285.1280426681077)"><path class="outline" fill="#A5ABB6" stroke="none" d="M 25 0.5 L 79.6899741703376 0.5 L 79.6899741703376 -0.5 L 25 -0.5 Z M 125.2524741703376 0.5 L 179.9424483406752 0.5 L 179.9424483406752 3.5 L 186.9424483406752 0 L 179.9424483406752 -3.5 L 179.9424483406752 -0.5 L 125.2524741703376 -0.5 Z"/><text text-anchor="middle" pointer-events="none" font-size="8px" fill="#000000" x="102.4712241703376" y="3" font-family="sans-serif">ACTED_IN</text></g><g class="relationship" transform="translate(56.57068500657698 189.3654164327616) rotate(275.54693877027745)"><path class="outline" fill="#A5ABB6" stroke="none" d="M 25 0.5 L 96.26511323995238 0.5 L 96.26511323995238 -0.5 L 25 -0.5 Z M 141.82761323995237 0.5 L 213.09272647990477 0.5 L 213.09272647990477 3.5 L 220.09272647990477 0 L 213.09272647990477 -3.5 L 213.09272647990477 -0.5 L 141.82761323995237 -0.5 Z"/><text text-anchor="middle" pointer-events="none" font-size="8px" fill="#000000" x="119.04636323995238" y="3" font-family="sans-serif">ACTED_IN</text></g><g class="relationship" transform="translate(56.57068500657698 189.3654164327616) rotate(305.4987791031709)"><path class="outline" fill="#A5ABB6" stroke="none" d="M 25 0.5 L 53.339321990766095 0.5 L 53.339321990766095 -0.5 L 25 -0.5 Z M 98.9018219907661 0.5 L 127.24114398153219 0.5 L 127.24114398153219 3.5 L 134.2411439815322 0 L 127.24114398153219 -3.5 L 127.24114398153219 -0.5 L 98.9018219907661 -0.5 Z"/><text text-anchor="middle" pointer-events="none" font-size="8px" fill="#000000" x="76.1205719907661" y="3" font-family="sans-serif">ACTED_IN</text></g><g class="relationship" transform="translate(56.57068500657698 189.3654164327616) rotate(328.4463193703053)"><path class="outline" fill="#A5ABB6" stroke="none" d="M 25 0.5 L 208.20376952394997 0.5 L 208.20376952394997 -0.5 L 25 -0.5 Z M 253.76626952394997 0.5 L 436.97003904789995 0.5 L 436.97003904789995 3.5 L 443.97003904789995 0 L 436.97003904789995 -3.5 L 436.97003904789995 -0.5 L 253.76626952394997 -0.5 Z"/><text text-anchor="middle" pointer-events="none" font-size="8px" fill="#000000" x="230.98501952394997" y="3" font-family="sans-serif">ACTED_IN</text></g><g class="relationship" transform="translate(264.5510515646073 -57.86133089929247) rotate(538.9798219232679)"><path class="outline" fill="#A5ABB6" stroke="none" d="M 25 0.5 L 65.87806508240712 0.5 L 65.87806508240712 -0.5 L 25 -0.5 Z M 111.44056508240712 0.5 L 152.31863016481424 0.5 L 152.31863016481424 3.5 L 159.31863016481424 0 L 152.31863016481424 -3.5 L 152.31863016481424 -0.5 L 111.44056508240712 -0.5 Z"/><text text-anchor="middle" pointer-events="none" font-size="8px" fill="#000000" x="88.65931508240712" y="3" transform="rotate(180 88.65931508240712 0)" font-family="sans-serif">ACTED_IN</text></g><g class="relationship" transform="translate(264.5510515646073 -57.86133089929247) rotate(494.4905197119876)"><path class="outline" fill="#A5ABB6" stroke="none" d="M 25 0.5 L 56.1336830725205 0.5 L 56.1336830725205 -0.5 L 25 -0.5 Z M 101.6961830725205 0.5 L 132.829866145041 0.5 L 132.829866145041 3.5 L 139.829866145041 0 L 132.829866145041 -3.5 L 132.829866145041 -0.5 L 101.6961830725205 -0.5 Z"/><text text-anchor="middle" pointer-events="none" font-size="8px" fill="#000000" x="78.9149330725205" y="3" transform="rotate(180 78.9149330725205 0)" font-family="sans-serif">ACTED_IN</text></g><g class="relationship" transform="translate(264.5510515646073 -57.86133089929247) rotate(360.5429036092479)"><path class="outline" fill="#A5ABB6" stroke="none" d="M 25 0.5 L 69.54933892921473 0.5 L 69.54933892921473 -0.5 L 25 -0.5 Z M 115.11183892921473 0.5 L 159.66117785842945 0.5 L 159.66117785842945 3.5 L 166.66117785842945 0 L 159.66117785842945 -3.5 L 159.66117785842945 -0.5 L 115.11183892921473 -0.5 Z"/><text text-anchor="middle" pointer-events="none" font-size="8px" fill="#000000" x="92.33058892921473" y="3" font-family="sans-serif">ACTED_IN</text></g><g class="relationship" transform="translate(-221.8833981881595 9.229344474131338) rotate(314.5905917608692)"><path class="outline" fill="#A5ABB6" stroke="none" d="M 25 0.5 L 31.051453526560685 0.5 L 31.051453526560685 -0.5 L 25 -0.5 Z M 76.61395352656069 0.5 L 82.66540705312137 0.5 L 82.66540705312137 3.5 L 89.66540705312137 0 L 82.66540705312137 -3.5 L 82.66540705312137 -0.5 L 76.61395352656069 -0.5 Z"/><text text-anchor="middle" pointer-events="none" font-size="8px" fill="#000000" x="53.832703526560685" y="3" font-family="sans-serif">ACTED_IN</text></g><g class="relationship" transform="translate(-221.8833981881595 9.229344474131338) rotate(452.3015471312016)"><path class="outline" fill="#A5ABB6" stroke="none" d="M 25 0.5 L 30.4979717682075 0.5 L 30.4979717682075 -0.5 L 25 -0.5 Z M 76.06047176820749 0.5 L 81.558443536415 0.5 L 81.558443536415 3.5 L 88.558443536415 0 L 81.558443536415 -3.5 L 81.558443536415 -0.5 L 76.06047176820749 -0.5 Z"/><text text-anchor="middle" pointer-events="none" font-size="8px" fill="#000000" x="53.2792217682075" y="3" transform="rotate(180 53.2792217682075 0)" font-family="sans-serif">ACTED_IN</text></g><g class="relationship" transform="translate(-221.8833981881595 9.229344474131338) rotate(410.70572660867015)"><path class="outline" fill="#A5ABB6" stroke="none" d="M 25 0.5 L 35.31635613994248 0.5 L 35.31635613994248 -0.5 L 25 -0.5 Z M 80.87885613994249 0.5 L 91.19521227988496 0.5 L 91.19521227988496 3.5 L 98.19521227988496 0 L 91.19521227988496 -3.5 L 91.19521227988496 -0.5 L 80.87885613994249 -0.5 Z"/><text text-anchor="middle" pointer-events="none" font-size="8px" fill="#000000" x="58.09760613994248" y="3" font-family="sans-serif">ACTED_IN</text></g><g class="relationship" transform="translate(-221.8833981881595 9.229344474131338) rotate(367.8781909291647)"><path class="outline" fill="#A5ABB6" stroke="none" d="M 25 0.5 L 33.69442172528693 0.5 L 33.69442172528693 -0.5 L 25 -0.5 Z M 79.25692172528693 0.5 L 87.95134345057386 0.5 L 87.95134345057386 3.5 L 94.95134345057386 0 L 87.95134345057386 -3.5 L 87.95134345057386 -0.5 L 79.25692172528693 -0.5 Z"/><text text-anchor="middle" pointer-events="none" font-size="8px" fill="#000000" x="56.47567172528693" y="3" font-family="sans-serif">ACTED_IN</text></g><g class="relationship" transform="translate(-221.8833981881595 9.229344474131338) rotate(348.07512329424253)"><path class="outline" fill="#A5ABB6" stroke="none" d="M 25 0.5 L 128.12341936782093 0.5 L 128.12341936782093 -0.5 L 25 -0.5 Z M 173.68591936782093 0.5 L 276.80933873564186 0.5 L 276.80933873564186 3.5 L 283.80933873564186 0 L 276.80933873564186 -3.5 L 276.80933873564186 -0.5 L 173.68591936782093 -0.5 Z"/><text text-anchor="middle" pointer-events="none" font-size="8px" fill="#000000" x="150.90466936782093" y="3" font-family="sans-serif">ACTED_IN</text></g><g class="relationship" transform="translate(-221.8833981881595 9.229344474131338) rotate(367.75197056133015)"><path class="outline" fill="#A5ABB6" stroke="none" d="M 25 0.5 L 160.89082901290246 0.5 L 160.89082901290246 -0.5 L 25 -0.5 Z M 206.45332901290246 0.5 L 342.3441580258049 0.5 L 342.3441580258049 3.5 L 349.3441580258049 0 L 342.3441580258049 -3.5 L 342.3441580258049 -0.5 L 206.45332901290246 -0.5 Z"/><text text-anchor="middle" pointer-events="none" font-size="8px" fill="#000000" x="183.67207901290246" y="3" font-family="sans-serif">ACTED_IN</text></g><g class="relationship" transform="translate(-221.8833981881595 9.229344474131338) rotate(354.5014842343745)"><path class="outline" fill="#A5ABB6" stroke="none" d="M 25 0.5 L 314.3295206446661 0.5 L 314.3295206446661 -0.5 L 25 -0.5 Z M 359.8920206446661 0.5 L 649.2215412893322 0.5 L 649.2215412893322 3.5 L 656.2215412893322 0 L 649.2215412893322 -3.5 L 649.2215412893322 -0.5 L 359.8920206446661 -0.5 Z"/><text text-anchor="middle" pointer-events="none" font-size="8px" fill="#000000" x="337.1107706446661" y="3" font-family="sans-serif">ACTED_IN</text></g></g><g class="layer nodes"><g class="node" transform="translate(456.2036254091898,-56.045281112701005)"><circle class="outline" cx="0" cy="0" r="25" fill="#57C7E3" stroke="#23b3d7" stroke-width="2px"/><text text-anchor="middle" pointer-events="none" font-family="sans-serif" dy="1.5625" font-size="25" fill="#2A2C34"/><text text-anchor="middle" pointer-events="none" font-family="sans-serif" dy="1.5625" font-size="25" fill="#2A2C34"/><text text-anchor="middle" pointer-events="none" x="0" y="0" font-size="10px" fill="#2A2C34" font-family="sans-serif"> The</text><text text-anchor="middle" pointer-events="none" x="0" y="10" font-size="10px" fill="#2A2C34" font-family="sans-serif"> Matrix</text></g><g class="node" transform="translate(400.8915178166609,148.5523048024615)"><circle class="outline" cx="0" cy="0" r="25" fill="#F79767" stroke="#f36924" stroke-width="2px"/><text text-anchor="middle" pointer-events="none" font-family="sans-serif" dy="1.5625" font-size="25" fill="#FFFFFF"/><text text-anchor="middle" pointer-events="none" font-family="sans-serif" dy="1.5625" font-size="25" fill="#FFFFFF"/><text text-anchor="middle" pointer-events="none" x="0" y="0" font-size="10px" fill="#FFFFFF" font-family="sans-serif"> Hugo</text><text text-anchor="middle" pointer-events="none" x="0" y="10" font-size="10px" fill="#FFFFFF" font-family="sans-serif"> Weaving</text></g><g class="node" transform="translate(289.8219358516009,157.29793375458684)"><circle class="outline" cx="0" cy="0" r="25" fill="#57C7E3" stroke="#23b3d7" stroke-width="2px"/><text text-anchor="middle" pointer-events="none" font-family="sans-serif" dy="1.5625" font-size="25" fill="#2A2C34"/><text text-anchor="middle" pointer-events="none" font-family="sans-serif" dy="1.5625" font-size="25" fill="#2A2C34"/><text text-anchor="middle" pointer-events="none" x="0" y="0" font-size="10px" fill="#2A2C34" font-family="sans-serif"> Cloud</text><text text-anchor="middle" pointer-events="none" x="0" y="10" font-size="10px" fill="#2A2C34" font-family="sans-serif"> Atlas</text></g><g class="node" transform="translate(337.2994473176971,244.80696230686982)"><circle class="outline" cx="0" cy="0" r="25" fill="#57C7E3" stroke="#23b3d7" stroke-width="2px"/><text text-anchor="middle" pointer-events="none" font-family="sans-serif" dy="1.5625" font-size="25" fill="#2A2C34"/><text text-anchor="middle" pointer-events="none" font-family="sans-serif" dy="1.5625" font-size="25" fill="#2A2C34"/><text text-anchor="middle" pointer-events="none" x="0" y="0" font-size="10px" fill="#2A2C34" font-family="sans-serif"> V for</text><text text-anchor="middle" pointer-events="none" x="0" y="10" font-size="10px" fill="#2A2C34" font-family="sans-serif"> Vendetta</text></g><g class="node" transform="translate(80.26163832256962,-54.57962513261407)"><circle class="outline" cx="0" cy="0" r="25" fill="#57C7E3" stroke="#23b3d7" stroke-width="2px"/><text text-anchor="middle" pointer-events="none" font-family="sans-serif" dy="1.5625" font-size="25" fill="#2A2C34"/><text text-anchor="middle" pointer-events="none" font-family="sans-serif" dy="1.5625" font-size="25" fill="#2A2C34"/><text text-anchor="middle" pointer-events="none" font-family="sans-serif" dy="1.5625" font-size="25" fill="#2A2C34"/><text text-anchor="middle" pointer-events="none" x="0" y="-5" font-size="10px" fill="#2A2C34" font-family="sans-serif"> The</text><text text-anchor="middle" pointer-events="none" x="0" y="5" font-size="10px" fill="#2A2C34" font-family="sans-serif"> Matrix</text><text text-anchor="middle" pointer-events="none" x="0" y="15" font-size="10px" fill="#2A2C34" font-family="sans-serif"> Revol…</text></g><g class="node" transform="translate(149.03972549590912,59.72275953492835)"><circle class="outline" cx="0" cy="0" r="25" fill="#57C7E3" stroke="#23b3d7" stroke-width="2px"/><text text-anchor="middle" pointer-events="none" font-family="sans-serif" dy="1.5625" font-size="25" fill="#2A2C34"/><text text-anchor="middle" pointer-events="none" font-family="sans-serif" dy="1.5625" font-size="25" fill="#2A2C34"/><text text-anchor="middle" pointer-events="none" font-family="sans-serif" dy="1.5625" font-size="25" fill="#2A2C34"/><text text-anchor="middle" pointer-events="none" x="0" y="-5" font-size="10px" fill="#2A2C34" font-family="sans-serif"> The</text><text text-anchor="middle" pointer-events="none" x="0" y="5" font-size="10px" fill="#2A2C34" font-family="sans-serif"> Matrix</text><text text-anchor="middle" pointer-events="none" x="0" y="15" font-size="10px" fill="#2A2C34" font-family="sans-serif"> Reloa…</text></g><g class="node" transform="translate(56.57068500657698,189.3654164327616)"><circle class="outline" cx="0" cy="0" r="25" fill="#F79767" stroke="#f36924" stroke-width="2px"/><text text-anchor="middle" pointer-events="none" font-family="sans-serif" dy="1.5625" font-size="25" fill="#FFFFFF"/><text text-anchor="middle" pointer-events="none" font-family="sans-serif" dy="1.5625" font-size="25" fill="#FFFFFF"/><text text-anchor="middle" pointer-events="none" x="0" y="0" font-size="10px" fill="#FFFFFF" font-family="sans-serif"> Laurence</text><text text-anchor="middle" pointer-events="none" x="0" y="10" font-size="10px" fill="#FFFFFF" font-family="sans-serif"> Fishbur…</text></g><g class="node" transform="translate(264.5510515646073,-57.86133089929247)"><circle class="outline" cx="0" cy="0" r="25" fill="#F79767" stroke="#f36924" stroke-width="2px"/><text text-anchor="middle" pointer-events="none" font-family="sans-serif" dy="1.5625" font-size="25" fill="#FFFFFF"/><text text-anchor="middle" pointer-events="none" x="0" y="5" font-size="10px" fill="#FFFFFF" font-family="sans-serif"> Carrie-A…</text></g><g class="node" transform="translate(-221.8833981881595,9.229344474131338)"><circle class="outline" cx="0" cy="0" r="25" fill="#F79767" stroke="#f36924" stroke-width="2px"/><text text-anchor="middle" pointer-events="none" font-family="sans-serif" dy="1.5625" font-size="25" fill="#FFFFFF"/><text text-anchor="middle" pointer-events="none" font-family="sans-serif" dy="1.5625" font-size="25" fill="#FFFFFF"/><text text-anchor="middle" pointer-events="none" x="0" y="0" font-size="10px" fill="#FFFFFF" font-family="sans-serif"> Keanu</text><text text-anchor="middle" pointer-events="none" x="0" y="10" font-size="10px" fill="#FFFFFF" font-family="sans-serif"> Reeves</text></g><g class="node" transform="translate(-141.3841400950406,-72.42863138319352)"><circle class="outline" cx="0" cy="0" r="25" fill="#57C7E3" stroke="#23b3d7" stroke-width="2px"/><text text-anchor="middle" pointer-events="none" font-family="sans-serif" dy="1.5625" font-size="25" fill="#2A2C34"/><text text-anchor="middle" pointer-events="none" x="0" y="5" font-size="10px" fill="#2A2C34" font-family="sans-serif"> Somethi…</text></g><g class="node" transform="translate(-226.44376597820985,122.69618167352024)"><circle class="outline" cx="0" cy="0" r="25" fill="#57C7E3" stroke="#23b3d7" stroke-width="2px"/><text text-anchor="middle" pointer-events="none" font-family="sans-serif" dy="1.5625" font-size="25" fill="#2A2C34"/><text text-anchor="middle" pointer-events="none" font-family="sans-serif" dy="1.5625" font-size="25" fill="#2A2C34"/><text text-anchor="middle" pointer-events="none" x="0" y="0" font-size="10px" fill="#2A2C34" font-family="sans-serif"> The</text><text text-anchor="middle" pointer-events="none" x="0" y="10" font-size="10px" fill="#2A2C34" font-family="sans-serif"> Replac…</text></g><g class="node" transform="translate(-143.86343592087474,104.57055181123914)"><circle class="outline" cx="0" cy="0" r="25" fill="#57C7E3" stroke="#23b3d7" stroke-width="2px"/><text text-anchor="middle" pointer-events="none" font-family="sans-serif" dy="1.5625" font-size="25" fill="#2A2C34"/><text text-anchor="middle" pointer-events="none" font-family="sans-serif" dy="1.5625" font-size="25" fill="#2A2C34"/><text text-anchor="middle" pointer-events="none" x="0" y="0" font-size="10px" fill="#2A2C34" font-family="sans-serif"> Johnny</text><text text-anchor="middle" pointer-events="none" x="0" y="10" font-size="10px" fill="#2A2C34" font-family="sans-serif"> Mnemo…</text></g><g class="node" transform="translate(-103.06419049657497,25.670776259156156)"><circle class="outline" cx="0" cy="0" r="25" fill="#57C7E3" stroke="#23b3d7" stroke-width="2px"/><text text-anchor="middle" pointer-events="none" font-family="sans-serif" dy="1.5625" font-size="25" fill="#2A2C34"/><text text-anchor="middle" pointer-events="none" font-family="sans-serif" dy="1.5625" font-size="25" fill="#2A2C34"/><text text-anchor="middle" pointer-events="none" font-family="sans-serif" dy="1.5625" font-size="25" fill="#2A2C34"/><text text-anchor="middle" pointer-events="none" x="0" y="-5" font-size="10px" fill="#2A2C34" font-family="sans-serif"> The</text><text text-anchor="middle" pointer-events="none" x="0" y="5" font-size="10px" fill="#2A2C34" font-family="sans-serif"> Devil's</text><text text-anchor="middle" pointer-events="none" x="0" y="15" font-size="10px" fill="#2A2C34" font-family="sans-serif"> Advoc…</text></g></g></svg>