<svg xmlns="http://www.w3.org/2000/svg" width="237.77951049804688" height="246.59976196289062" viewBox="-9.623571395874023 -11.064094543457031 237.77951049804688 246.59976196289062"><title>Neo4j Graph Visualization</title><desc>Created using Neo4j (http://www.neo4j.com/)</desc><g class="layer relationships"><g class="relationship" transform="translate(125.28510910442344 126.85622029980019) rotate(407.6509851861833)"><path class="outline" fill="#A5ABB6" stroke="none" d="M 25 0.5 L 27.625045168844714 0.5 L 27.625045168844714 -0.5 L 25 -0.5 Z M 73.18754516884471 0.5 L 75.81259033768943 0.5 L 75.81259033768943 3.5 L 82.81259033768943 0 L 75.81259033768943 -3.5 L 75.81259033768943 -0.5 L 73.18754516884471 -0.5 Z"/><text text-anchor="middle" pointer-events="none" font-size="8px" fill="#000000" x="50.406295168844714" y="3" font-family="sans-serif">ACTED_IN</text></g><g class="relationship" transform="translate(125.28510910442344 126.85622029980019) rotate(310.85615648342167)"><path class="outline" fill="#A5ABB6" stroke="none" d="M 25 0.5 L 30.18091643219786 0.5 L 30.18091643219786 -0.5 L 25 -0.5 Z M 75.74341643219786 0.5 L 80.92433286439572 0.5 L 80.92433286439572 3.5 L 87.92433286439572 0 L 80.92433286439572 -3.5 L 80.92433286439572 -0.5 L 75.74341643219786 -0.5 Z"/><text text-anchor="middle" pointer-events="none" font-size="8px" fill="#000000" x="52.96216643219786" y="3" font-family="sans-serif">ACTED_IN</text></g><g class="relationship" transform="translate(125.28510910442344 126.85622029980019) rotate(254.13132415861656)"><path class="outline" fill="#A5ABB6" stroke="none" d="M 25 0.5 L 30.33655899271558 0.5 L 30.33655899271558 -0.5 L 25 -0.5 Z M 75.89905899271558 0.5 L 81.23561798543116 0.5 L 81.23561798543116 3.5 L 88.23561798543116 0 L 81.23561798543116 -3.5 L 81.23561798543116 -0.5 L 75.89905899271558 -0.5 Z"/><text text-anchor="middle" pointer-events="none" font-size="8px" fill="#000000" x="53.11780899271558" y="3" transform="rotate(180 53.11780899271558 0)" font-family="sans-serif">ACTED_IN</text></g><g class="relationship" transform="translate(125.28510910442344 126.85622029980019) rotate(200.73337158430263)"><path class="outline" fill="#A5ABB6" stroke="none" d="M 25 0.5 L 30.33999557763417 0.5 L 30.33999557763417 -0.5 L 25 -0.5 Z M 75.90249557763417 0.5 L 81.24249115526834 0.5 L 81.24249115526834 3.5 L 88.24249115526834 0 L 81.24249115526834 -3.5 L 81.24249115526834 -0.5 L 75.90249557763417 -0.5 Z"/><text text-anchor="middle" pointer-events="none" font-size="8px" fill="#000000" x="53.12124557763417" y="3" transform="rotate(180 53.12124557763417 0)" font-family="sans-serif">ACTED_IN</text></g><g class="relationship" transform="translate(125.28510910442344 126.85622029980019) rotate(504.078958677111)"><path class="outline" fill="#A5ABB6" stroke="none" d="M 25 0.5 L 30.196598214444954 0.5 L 30.196598214444954 -0.5 L 25 -0.5 Z M 75.75909821444495 0.5 L 80.95569642888991 0.5 L 80.95569642888991 3.5 L 87.95569642888991 0 L 80.95569642888991 -3.5 L 80.95569642888991 -0.5 L 75.75909821444495 -0.5 Z"/><text text-anchor="middle" pointer-events="none" font-size="8px" fill="#000000" x="52.977848214444954" y="3" transform="rotate(180 52.977848214444954 0)" font-family="sans-serif">ACTED_IN</text></g></g><g class="layer nodes"><g class="node" transform="translate(125.28510910442344,126.85622029980019)"><circle class="outline" cx="0" cy="0" r="25" fill="#F79767" stroke="#f36924" stroke-width="2px"/><text text-anchor="middle" pointer-events="none" font-family="sans-serif" dy="1.5625" font-size="25" fill="#FFFFFF"/><text text-anchor="middle" pointer-events="none" font-family="sans-serif" dy="1.5625" font-size="25" fill="#FFFFFF"/><text text-anchor="middle" pointer-events="none" x="0" y="0" font-size="10px" fill="#FFFFFF" font-family="sans-serif"> Hugo</text><text text-anchor="middle" pointer-events="none" x="0" y="10" font-size="10px" fill="#FFFFFF" font-family="sans-serif"> Weaving</text></g><g class="node" transform="translate(197.91252144636383,206.53566314321)"><circle class="outline" cx="0" cy="0" r="25" fill="#57C7E3" stroke="#23b3d7" stroke-width="2px"/><text text-anchor="middle" pointer-events="none" font-family="sans-serif" dy="1.5625" font-size="25" fill="#2A2C34"/><text text-anchor="middle" pointer-events="none" font-family="sans-serif" dy="1.5625" font-size="25" fill="#2A2C34"/><text text-anchor="middle" pointer-events="none" x="0" y="0" font-size="10px" fill="#2A2C34" font-family="sans-serif"> Cloud</text><text text-anchor="middle" pointer-events="none" x="0" y="10" font-size="10px" fill="#2A2C34" font-family="sans-serif"> Atlas</text></g><g class="node" transform="translate(199.15594280998516,41.44541957463376)"><circle class="outline" cx="0" cy="0" r="25" fill="#57C7E3" stroke="#23b3d7" stroke-width="2px"/><text text-anchor="middle" pointer-events="none" font-family="sans-serif" dy="1.5625" font-size="25" fill="#2A2C34"/><text text-anchor="middle" pointer-events="none" font-family="sans-serif" dy="1.5625" font-size="25" fill="#2A2C34"/><text text-anchor="middle" pointer-events="none" x="0" y="0" font-size="10px" fill="#2A2C34" font-family="sans-serif"> V for</text><text text-anchor="middle" pointer-events="none" x="0" y="10" font-size="10px" fill="#2A2C34" font-family="sans-serif"> Vendetta</text></g><g class="node" transform="translate(94.32271083604559,17.93590505047282)"><circle class="outline" cx="0" cy="0" r="25" fill="#57C7E3" stroke="#23b3d7" stroke-width="2px"/><text text-anchor="middle" pointer-events="none" font-family="sans-serif" dy="1.5625" font-size="25" fill="#2A2C34"/><text text-anchor="middle" pointer-events="none" font-family="sans-serif" dy="1.5625" font-size="25" fill="#2A2C34"/><text text-anchor="middle" pointer-events="none" font-family="sans-serif" dy="1.5625" font-size="25" fill="#2A2C34"/><text text-anchor="middle" pointer-events="none" x="0" y="-5" font-size="10px" fill="#2A2C34" font-family="sans-serif"> The</text><text text-anchor="middle" pointer-events="none" x="0" y="5" font-size="10px" fill="#2A2C34" font-family="sans-serif"> Matrix</text><text text-anchor="middle" pointer-events="none" x="0" y="15" font-size="10px" fill="#2A2C34" font-family="sans-serif"> Revol…</text></g><g class="node" transform="translate(19.376428969781706,86.76615575521296)"><circle class="outline" cx="0" cy="0" r="25" fill="#57C7E3" stroke="#23b3d7" stroke-width="2px"/><text text-anchor="middle" pointer-events="none" font-family="sans-serif" dy="1.5625" font-size="25" fill="#2A2C34"/><text text-anchor="middle" pointer-events="none" font-family="sans-serif" dy="1.5625" font-size="25" fill="#2A2C34"/><text text-anchor="middle" pointer-events="none" font-family="sans-serif" dy="1.5625" font-size="25" fill="#2A2C34"/><text text-anchor="middle" pointer-events="none" x="0" y="-5" font-size="10px" fill="#2A2C34" font-family="sans-serif"> The</text><text text-anchor="middle" pointer-events="none" x="0" y="5" font-size="10px" fill="#2A2C34" font-family="sans-serif"> Matrix</text><text text-anchor="middle" pointer-events="none" x="0" y="15" font-size="10px" fill="#2A2C34" font-family="sans-serif"> Reloa…</text></g><g class="node" transform="translate(33.8106214751269,193.1239158134757)"><circle class="outline" cx="0" cy="0" r="25" fill="#57C7E3" stroke="#23b3d7" stroke-width="2px"/><text text-anchor="middle" pointer-events="none" font-family="sans-serif" dy="1.5625" font-size="25" fill="#2A2C34"/><text text-anchor="middle" pointer-events="none" font-family="sans-serif" dy="1.5625" font-size="25" fill="#2A2C34"/><text text-anchor="middle" pointer-events="none" x="0" y="0" font-size="10px" fill="#2A2C34" font-family="sans-serif"> The</text><text text-anchor="middle" pointer-events="none" x="0" y="10" font-size="10px" fill="#2A2C34" font-family="sans-serif"> Matrix</text></g></g></svg>